{
    "asset" : {
        "copyright" : "SOCCI",
        "generator" : "Khronos glTF Blender I/O v3.2.40",
        "version" : "2.0"
    },
    "scene" : 0,
    "scenes" : [
        {
            "name" : "Scene",
            "nodes" : [
                0
            ]
        }
    ],
    "nodes" : [
        {
            "mesh" : 0,
            "name" : "Solid.001"
        }
    ],
    "materials" : [
        {
            "doubleSided" : true,
            "name" : "Material",
            "pbrMetallicRoughness" : {
                "baseColorFactor" : [
                    0.0009099089074879885,
                    0.47353118658065796,
                    0.47932010889053345,
                    1
                ],
                "metallicFactor" : 0,
                "roughnessFactor" : 0.4000000059604645
            }
        },
        {
            "doubleSided" : true,
            "name" : "Material.001",
            "pbrMetallicRoughness" : {
                "baseColorFactor" : [
                    0.46207600831985474,
                    0.8307691812515259,
                    0.6583749055862427,
                    1
                ],
                "metallicFactor" : 0,
                "roughnessFactor" : 0.5
            }
        },
        {
            "doubleSided" : true,
            "name" : "Material.002",
            "pbrMetallicRoughness" : {
                "baseColorFactor" : [
                    0.06847778707742691,
                    0.4735313057899475,
                    0.07618551701307297,
                    1
                ],
                "metallicFactor" : 0,
                "roughnessFactor" : 0.5
            }
        }
    ],
    "meshes" : [
        {
            "name" : "Solid.001",
            "primitives" : [
                {
                    "attributes" : {
                        "POSITION" : 0,
                        "NORMAL" : 1
                    },
                    "indices" : 2,
                    "material" : 0
                },
                {
                    "attributes" : {
                        "POSITION" : 3,
                        "NORMAL" : 4
                    },
                    "indices" : 5,
                    "material" : 1
                },
                {
                    "attributes" : {
                        "POSITION" : 6,
                        "NORMAL" : 7
                    },
                    "indices" : 8,
                    "material" : 2
                }
            ]
        }
    ],
    "accessors" : [
        {
            "bufferView" : 0,
            "componentType" : 5126,
            "count" : 84,
            "max" : [
                0.8152380585670471,
                0.8152380585670471,
                0.8152380585670471
            ],
            "min" : [
                -0.8152380585670471,
                -0.8152380585670471,
                -0.8152380585670471
            ],
            "type" : "VEC3"
        },
        {
            "bufferView" : 1,
            "componentType" : 5126,
            "count" : 84,
            "type" : "VEC3"
        },
        {
            "bufferView" : 2,
            "componentType" : 5123,
            "count" : 108,
            "type" : "SCALAR"
        },
        {
            "bufferView" : 3,
            "componentType" : 5126,
            "count" : 120,
            "max" : [
                0.8152380585670471,
                0.8152380585670471,
                0.8152380585670471
            ],
            "min" : [
                -0.8152380585670471,
                -0.8152380585670471,
                -0.8152380585670471
            ],
            "type" : "VEC3"
        },
        {
            "bufferView" : 4,
            "componentType" : 5126,
            "count" : 120,
            "type" : "VEC3"
        },
        {
            "bufferView" : 5,
            "componentType" : 5123,
            "count" : 180,
            "type" : "SCALAR"
        },
        {
            "bufferView" : 6,
            "componentType" : 5126,
            "count" : 60,
            "max" : [
                0.8152380585670471,
                0.8152380585670471,
                0.8152380585670471
            ],
            "min" : [
                -0.8152380585670471,
                -0.8152380585670471,
                -0.8152380585670471
            ],
            "type" : "VEC3"
        },
        {
            "bufferView" : 7,
            "componentType" : 5126,
            "count" : 60,
            "type" : "VEC3"
        },
        {
            "bufferView" : 8,
            "componentType" : 5123,
            "count" : 60,
            "type" : "SCALAR"
        }
    ],
    "bufferViews" : [
        {
            "buffer" : 0,
            "byteLength" : 1008,
            "byteOffset" : 0
        },
        {
            "buffer" : 0,
            "byteLength" : 1008,
            "byteOffset" : 1008
        },
        {
            "buffer" : 0,
            "byteLength" : 216,
            "byteOffset" : 2016
        },
        {
            "buffer" : 0,
            "byteLength" : 1440,
            "byteOffset" : 2232
        },
        {
            "buffer" : 0,
            "byteLength" : 1440,
            "byteOffset" : 3672
        },
        {
            "buffer" : 0,
            "byteLength" : 360,
            "byteOffset" : 5112
        },
        {
            "buffer" : 0,
            "byteLength" : 720,
            "byteOffset" : 5472
        },
        {
            "buffer" : 0,
            "byteLength" : 720,
            "byteOffset" : 6192
        },
        {
            "buffer" : 0,
            "byteLength" : 120,
            "byteOffset" : 6912
        }
    ],
    "buffers" : [
        {
            "byteLength" : 7032,
            "uri" : "data:application/octet-stream;base64,"
        }
    ]
}
