{
    "asset" : {
        "copyright" : "SOCCI",
        "generator" : "Khronos glTF Blender I/O v3.2.40",
        "version" : "2.0"
    },
    "scene" : 0,
    "scenes" : [
        {
            "name" : "Scene",
            "nodes" : [
                0
            ]
        }
    ],
    "nodes" : [
        {
            "mesh" : 0,
            "name" : "Solid.001"
        }
    ],
    "materials" : [
        {
            "doubleSided" : true,
            "name" : "Material",
            "pbrMetallicRoughness" : {
                "baseColorFactor" : [
                    0.07035970687866211,
                    0.4735313057899475,
                    0.08228281140327454,
                    1
                ],
                "metallicFactor" : 0,
                "roughnessFactor" : 0.4000000059604645
            }
        },
        {
            "doubleSided" : true,
            "name" : "Material.001",
            "pbrMetallicRoughness" : {
                "baseColorFactor" : [
                    0.042310964316129684,
                    0.3662523925304413,
                    0.30054381489753723,
                    1
                ],
                "metallicFactor" : 0,
                "roughnessFactor" : 0.5
            }
        },
        {
            "doubleSided" : true,
            "name" : "Material.002",
            "pbrMetallicRoughness" : {
                "baseColorFactor" : [
                    0.46207600831985474,
                    0.8307691812515259,
                    0.6583749055862427,
                    1
                ],
                "metallicFactor" : 0,
                "roughnessFactor" : 0.5
            }
        }
    ],
    "meshes" : [
        {
            "name" : "Solid.001",
            "primitives" : [
                {
                    "attributes" : {
                        "POSITION" : 0,
                        "NORMAL" : 1
                    },
                    "indices" : 2,
                    "material" : 0
                },
                {
                    "attributes" : {
                        "POSITION" : 3,
                        "NORMAL" : 4
                    },
                    "indices" : 5,
                    "material" : 1
                },
                {
                    "attributes" : {
                        "POSITION" : 6,
                        "NORMAL" : 7
                    },
                    "indices" : 8,
                    "material" : 2
                }
            ]
        }
    ],
    "accessors" : [
        {
            "bufferView" : 0,
            "componentType" : 5126,
            "count" : 192,
            "max" : [
                0.8092793226242065,
                0.8092793226242065,
                0.8092793226242065
            ],
            "min" : [
                -0.8092793226242065,
                -0.8092793226242065,
                -0.8092793226242065
            ],
            "type" : "VEC3"
        },
        {
            "bufferView" : 1,
            "componentType" : 5126,
            "count" : 192,
            "type" : "VEC3"
        },
        {
            "bufferView" : 2,
            "componentType" : 5123,
            "count" : 288,
            "type" : "SCALAR"
        },
        {
            "bufferView" : 3,
            "componentType" : 5126,
            "count" : 160,
            "max" : [
                0.8092793226242065,
                0.8092793226242065,
                0.8092793226242065
            ],
            "min" : [
                -0.8092793226242065,
                -0.8092793226242065,
                -0.8092793226242065
            ],
            "type" : "VEC3"
        },
        {
            "bufferView" : 4,
            "componentType" : 5126,
            "count" : 160,
            "type" : "VEC3"
        },
        {
            "bufferView" : 5,
            "componentType" : 5123,
            "count" : 240,
            "type" : "SCALAR"
        },
        {
            "bufferView" : 6,
            "componentType" : 5126,
            "count" : 120,
            "max" : [
                0.8092793226242065,
                0.8092793226242065,
                0.8092793226242065
            ],
            "min" : [
                -0.8092793226242065,
                -0.8092793226242065,
                -0.8092793226242065
            ],
            "type" : "VEC3"
        },
        {
            "bufferView" : 7,
            "componentType" : 5126,
            "count" : 120,
            "type" : "VEC3"
        },
        {
            "bufferView" : 8,
            "componentType" : 5123,
            "count" : 180,
            "type" : "SCALAR"
        }
    ],
    "bufferViews" : [
        {
            "buffer" : 0,
            "byteLength" : 2304,
            "byteOffset" : 0
        },
        {
            "buffer" : 0,
            "byteLength" : 2304,
            "byteOffset" : 2304
        },
        {
            "buffer" : 0,
            "byteLength" : 576,
            "byteOffset" : 4608
        },
        {
            "buffer" : 0,
            "byteLength" : 1920,
            "byteOffset" : 5184
        },
        {
            "buffer" : 0,
            "byteLength" : 1920,
            "byteOffset" : 7104
        },
        {
            "buffer" : 0,
            "byteLength" : 480,
            "byteOffset" : 9024
        },
        {
            "buffer" : 0,
            "byteLength" : 1440,
            "byteOffset" : 9504
        },
        {
            "buffer" : 0,
            "byteLength" : 1440,
            "byteOffset" : 10944
        },
        {
            "buffer" : 0,
            "byteLength" : 360,
            "byteOffset" : 12384
        }
    ],
    "buffers" : [
        {
            "byteLength" : 12744,
            "uri" : "data:application/octet-stream;base64,"
        }
    ]
}
