{
    "asset" : {
        "copyright" : "SOCCI",
        "generator" : "Khronos glTF Blender I/O v3.2.40",
        "version" : "2.0"
    },
    "scene" : 0,
    "scenes" : [
        {
            "name" : "Scene",
            "nodes" : [
                0
            ]
        }
    ],
    "nodes" : [
        {
            "mesh" : 0,
            "name" : "Solid.001"
        }
    ],
    "materials" : [
        {
            "doubleSided" : true,
            "name" : "Material",
            "pbrMetallicRoughness" : {
                "baseColorFactor" : [
                    0.045186012983322144,
                    0.11443527042865753,
                    0.21223071217536926,
                    1
                ],
                "metallicFactor" : 0,
                "roughnessFactor" : 0.4000000059604645
            }
        },
        {
            "doubleSided" : true,
            "name" : "Material.001",
            "pbrMetallicRoughness" : {
                "baseColorFactor" : [
                    0.09530702233314514,
                    0.2541518211364746,
                    0.4851498603820801,
                    1
                ],
                "metallicFactor" : 0,
                "roughnessFactor" : 0.5
            }
        }
    ],
    "meshes" : [
        {
            "name" : "Solid.001",
            "primitives" : [
                {
                    "attributes" : {
                        "POSITION" : 0,
                        "NORMAL" : 1
                    },
                    "indices" : 2,
                    "material" : 0
                },
                {
                    "attributes" : {
                        "POSITION" : 3,
                        "NORMAL" : 4
                    },
                    "indices" : 5,
                    "material" : 1
                }
            ]
        }
    ],
    "accessors" : [
        {
            "bufferView" : 0,
            "componentType" : 5126,
            "count" : 96,
            "max" : [
                0.5773503184318542,
                0.5773503184318542,
                0.5773503184318542
            ],
            "min" : [
                -0.5773503184318542,
                -0.5773503184318542,
                -0.5773503184318542
            ],
            "type" : "VEC3"
        },
        {
            "bufferView" : 1,
            "componentType" : 5126,
            "count" : 96,
            "type" : "VEC3"
        },
        {
            "bufferView" : 2,
            "componentType" : 5123,
            "count" : 96,
            "type" : "SCALAR"
        },
        {
            "bufferView" : 3,
            "componentType" : 5126,
            "count" : 24,
            "max" : [
                0.5773503184318542,
                0.5773503184318542,
                0.5773503184318542
            ],
            "min" : [
                -0.5773503184318542,
                -0.5773503184318542,
                -0.5773503184318542
            ],
            "type" : "VEC3"
        },
        {
            "bufferView" : 4,
            "componentType" : 5126,
            "count" : 24,
            "type" : "VEC3"
        },
        {
            "bufferView" : 5,
            "componentType" : 5123,
            "count" : 36,
            "type" : "SCALAR"
        }
    ],
    "bufferViews" : [
        {
            "buffer" : 0,
            "byteLength" : 1152,
            "byteOffset" : 0
        },
        {
            "buffer" : 0,
            "byteLength" : 1152,
            "byteOffset" : 1152
        },
        {
            "buffer" : 0,
            "byteLength" : 192,
            "byteOffset" : 2304
        },
        {
            "buffer" : 0,
            "byteLength" : 288,
            "byteOffset" : 2496
        },
        {
            "buffer" : 0,
            "byteLength" : 288,
            "byteOffset" : 2784
        },
        {
            "buffer" : 0,
            "byteLength" : 72,
            "byteOffset" : 3072
        }
    ],
    "buffers" : [
        {
            "byteLength" : 3144,
            "uri" : "data:application/octet-stream;base64,"
        }
    ]
}
