{
    "asset" : {
        "copyright" : "SOCCI",
        "generator" : "Khronos glTF Blender I/O v3.2.40",
        "version" : "2.0"
    },
    "scene" : 0,
    "scenes" : [
        {
            "name" : "Scene",
            "nodes" : [
                0
            ]
        }
    ],
    "nodes" : [
        {
            "mesh" : 0,
            "name" : "AntiprismaOctagonal"
        }
    ],
    "materials" : [
        {
            "doubleSided" : true,
            "name" : "Material",
            "pbrMetallicRoughness" : {
                "baseColorFactor" : [
                    0.41254177689552307,
                    0.4125419855117798,
                    1,
                    1
                ],
                "metallicFactor" : 0,
                "roughnessFactor" : 0.4000000059604645
            }
        }
    ],
    "meshes" : [
        {
            "name" : "AntiprismaOctagonal",
            "primitives" : [
                {
                    "attributes" : {
                        "POSITION" : 0,
                        "NORMAL" : 1,
                        "TEXCOORD_0" : 2
                    },
                    "indices" : 3,
                    "material" : 0
                }
            ]
        }
    ],
    "accessors" : [
        {
            "bufferView" : 0,
            "componentType" : 5126,
            "count" : 49043,
            "max" : [
                4.719682216644287,
                4.289889812469482,
                4.719682216644287
            ],
            "min" : [
                -4.719682216644287,
                0.007987000048160553,
                -4.719682216644287
            ],
            "type" : "VEC3"
        },
        {
            "bufferView" : 1,
            "componentType" : 5126,
            "count" : 49043,
            "type" : "VEC3"
        },
        {
            "bufferView" : 2,
            "componentType" : 5126,
            "count" : 49043,
            "type" : "VEC2"
        },
        {
            "bufferView" : 3,
            "componentType" : 5123,
            "count" : 281136,
            "type" : "SCALAR"
        }
    ],
    "bufferViews" : [
        {
            "buffer" : 0,
            "byteLength" : 588516,
            "byteOffset" : 0
        },
        {
            "buffer" : 0,
            "byteLength" : 588516,
            "byteOffset" : 588516
        },
        {
            "buffer" : 0,
            "byteLength" : 392344,
            "byteOffset" : 1177032
        },
        {
            "buffer" : 0,
            "byteLength" : 562272,
            "byteOffset" : 1569376
        }
    ],
    "buffers" : [
        {
            "byteLength" : 2131648,
            "uri" : "data:application/octet-stream;base64,"
        }
    ]
}
