# 3ds Max Wavefront OBJ Exporter v0.97b - (c)2007 guruware
# File Created: 05.04.2013 06:14:00

#
# object 20256_Square_Antiprism
#

v  -3.4077 -3.4077 0.0000
v  -3.4077 3.4077 0.0000
v  3.4077 3.4077 0.0000
v  3.4077 -3.4077 0.0000
v  -0.0000 -4.8192 6.8153
v  4.8192 -0.0000 6.8153
v  0.0000 4.8192 6.8153
v  -4.8192 0.0000 6.8153
# 8 vertices

vn 0.0000 0.0000 -1.0000
vn 0.0000 0.0000 1.0000
vn 0.0000 -0.9792 -0.2028
vn 0.9792 0.0000 -0.2028
vn 0.0000 0.9792 -0.2028
vn -0.9792 0.0000 -0.2028
vn 0.6924 -0.6924 0.2028
vn 0.6924 0.6924 0.2028
vn -0.6924 0.6924 0.2028
vn -0.6924 -0.6924 0.2028
# 10 vertex normals

vt 1.0000 0.0000 0.0000
vt 1.0000 1.0000 0.0000
vt 0.0000 1.0000 0.0000
vt 0.0000 0.0000 0.0000
# 4 texture coords

g 20256_Square_Antiprism
s off
f 1/1/1 2/2/1 3/3/1 4/4/1 
f 5/4/2 6/1/2 7/2/2 8/3/2 
f 1/4/3 4/1/3 5/3/3 
f 4/4/4 3/1/4 6/3/4 
f 3/4/5 2/1/5 7/3/5 
f 2/4/6 1/1/6 8/3/6 
f 4/1/7 6/2/7 5/3/7 
f 3/1/8 7/2/8 6/3/8 
f 2/1/9 8/2/9 7/3/9 
f 1/1/10 5/2/10 8/3/10 
# 2 polygons - 8 triangles

