{
    "asset" : {
        "copyright" : "SOCCI",
        "generator" : "Khronos glTF Blender I/O v3.2.40",
        "version" : "2.0"
    },
    "scene" : 0,
    "scenes" : [
        {
            "name" : "Scene",
            "nodes" : [
                0
            ]
        }
    ],
    "nodes" : [
        {
            "mesh" : 0,
            "name" : "AntiprismaHexagonal"
        }
    ],
    "materials" : [
        {
            "doubleSided" : true,
            "name" : "Material",
            "pbrMetallicRoughness" : {
                "baseColorFactor" : [
                    0.30946868658065796,
                    0.21586023271083832,
                    0.38132596015930176,
                    1
                ],
                "metallicFactor" : 0,
                "roughnessFactor" : 0.4000000059604645
            }
        }
    ],
    "meshes" : [
        {
            "name" : "AntiprismaHexagonal",
            "primitives" : [
                {
                    "attributes" : {
                        "POSITION" : 0,
                        "NORMAL" : 1,
                        "TEXCOORD_0" : 2
                    },
                    "indices" : 3,
                    "material" : 0
                }
            ]
        }
    ],
    "accessors" : [
        {
            "bufferView" : 0,
            "componentType" : 5126,
            "count" : 36779,
            "max" : [
                4.719682216644287,
                4.289889812469482,
                4.719682216644287
            ],
            "min" : [
                -4.719682216644287,
                0.007987000048160553,
                -4.719682216644287
            ],
            "type" : "VEC3"
        },
        {
            "bufferView" : 1,
            "componentType" : 5126,
            "count" : 36779,
            "type" : "VEC3"
        },
        {
            "bufferView" : 2,
            "componentType" : 5126,
            "count" : 36779,
            "type" : "VEC2"
        },
        {
            "bufferView" : 3,
            "componentType" : 5123,
            "count" : 210816,
            "type" : "SCALAR"
        }
    ],
    "bufferViews" : [
        {
            "buffer" : 0,
            "byteLength" : 441348,
            "byteOffset" : 0
        },
        {
            "buffer" : 0,
            "byteLength" : 441348,
            "byteOffset" : 441348
        },
        {
            "buffer" : 0,
            "byteLength" : 294232,
            "byteOffset" : 882696
        },
        {
            "buffer" : 0,
            "byteLength" : 421632,
            "byteOffset" : 1176928
        }
    ],
    "buffers" : [
        {
            "byteLength" : 1598560,
            "uri" : "data:application/octet-stream;base64,"
        }
    ]
}
