{
    "asset" : {
        "copyright" : "SOCCI",
        "generator" : "Khronos glTF Blender I/O v3.2.40",
        "version" : "2.0"
    },
    "scene" : 0,
    "scenes" : [
        {
            "name" : "Scene",
            "nodes" : [
                0
            ]
        }
    ],
    "nodes" : [
        {
            "mesh" : 0,
            "name" : "Prismaoctagonal",
            "scale" : [
                0.5,
                0.5,
                0.5
            ]
        }
    ],
    "materials" : [
        {
            "doubleSided" : true,
            "name" : "Material",
            "pbrMetallicRoughness" : {
                "baseColorFactor" : [
                    0.24620084464550018,
                    0.09084128588438034,
                    0.8796222805976868,
                    1
                ],
                "metallicFactor" : 0.5,
                "roughnessFactor" : 0.4000000059604645
            }
        }
    ],
    "meshes" : [
        {
            "name" : "Prismaoctagonal",
            "primitives" : [
                {
                    "attributes" : {
                        "POSITION" : 0,
                        "NORMAL" : 1,
                        "TEXCOORD_0" : 2
                    },
                    "indices" : 3,
                    "material" : 0
                }
            ]
        }
    ],
    "accessors" : [
        {
            "bufferView" : 0,
            "componentType" : 5126,
            "count" : 10394,
            "max" : [
                18.656982421875,
                15.578957557678223,
                18.656986236572266
            ],
            "min" : [
                -18.656984329223633,
                -0.763189971446991,
                -18.656984329223633
            ],
            "type" : "VEC3"
        },
        {
            "bufferView" : 1,
            "componentType" : 5126,
            "count" : 10394,
            "type" : "VEC3"
        },
        {
            "bufferView" : 2,
            "componentType" : 5126,
            "count" : 10394,
            "type" : "VEC2"
        },
        {
            "bufferView" : 3,
            "componentType" : 5123,
            "count" : 14304,
            "type" : "SCALAR"
        }
    ],
    "bufferViews" : [
        {
            "buffer" : 0,
            "byteLength" : 124728,
            "byteOffset" : 0
        },
        {
            "buffer" : 0,
            "byteLength" : 124728,
            "byteOffset" : 124728
        },
        {
            "buffer" : 0,
            "byteLength" : 83152,
            "byteOffset" : 249456
        },
        {
            "buffer" : 0,
            "byteLength" : 28608,
            "byteOffset" : 332608
        }
    ],
    "buffers" : [
        {
            "byteLength" : 361216,
            "uri" : "data:application/octet-stream;base64,"
        }
    ]
}
