{
    "asset" : {
        "copyright" : "SOCCI",
        "generator" : "Khronos glTF Blender I/O v3.2.40",
        "version" : "2.0"
    },
    "scene" : 0,
    "scenes" : [
        {
            "name" : "Scene",
            "nodes" : [
                0
            ]
        }
    ],
    "nodes" : [
        {
            "mesh" : 0,
            "name" : "23.Prismahexagonal",
            "rotation" : [
                -1,
                0,
                0,
                1.6292068494294654e-07
            ],
            "translation" : [
                0,
                13,
                0
            ]
        }
    ],
    "materials" : [
        {
            "doubleSided" : true,
            "name" : "Material",
            "pbrMetallicRoughness" : {
                "baseColorFactor" : [
                    0.10946158319711685,
                    0.06480315327644348,
                    0.2015562504529953,
                    1
                ],
                "metallicFactor" : 0.5,
                "roughnessFactor" : 0.4000000059604645
            }
        }
    ],
    "meshes" : [
        {
            "name" : "23.Prismahexagonal",
            "primitives" : [
                {
                    "attributes" : {
                        "POSITION" : 0,
                        "NORMAL" : 1,
                        "TEXCOORD_0" : 2
                    },
                    "indices" : 3,
                    "material" : 0
                }
            ]
        }
    ],
    "accessors" : [
        {
            "bufferView" : 0,
            "componentType" : 5126,
            "count" : 1337,
            "max" : [
                12.594400405883789,
                12.815999984741211,
                10.949299812316895
            ],
            "min" : [
                -12.593799591064453,
                0.12380000203847885,
                -10.949299812316895
            ],
            "type" : "VEC3"
        },
        {
            "bufferView" : 1,
            "componentType" : 5126,
            "count" : 1337,
            "type" : "VEC3"
        },
        {
            "bufferView" : 2,
            "componentType" : 5126,
            "count" : 1337,
            "type" : "VEC2"
        },
        {
            "bufferView" : 3,
            "componentType" : 5123,
            "count" : 7872,
            "type" : "SCALAR"
        }
    ],
    "bufferViews" : [
        {
            "buffer" : 0,
            "byteLength" : 16044,
            "byteOffset" : 0
        },
        {
            "buffer" : 0,
            "byteLength" : 16044,
            "byteOffset" : 16044
        },
        {
            "buffer" : 0,
            "byteLength" : 10696,
            "byteOffset" : 32088
        },
        {
            "buffer" : 0,
            "byteLength" : 15744,
            "byteOffset" : 42784
        }
    ],
    "buffers" : [
        {
            "byteLength" : 58528,
            "uri" : "data:application/octet-stream;base64,"
        }
    ]
}
