{
    "asset" : {
        "copyright" : "SOCCI",
        "generator" : "Khronos glTF Blender I/O v3.2.40",
        "version" : "2.0"
    },
    "scene" : 0,
    "scenes" : [
        {
            "name" : "Scene",
            "nodes" : [
                0
            ]
        }
    ],
    "nodes" : [
        {
            "mesh" : 0,
            "name" : "Prisma dodecagonal",
            "rotation" : [
                -1,
                0,
                0,
                1.6292068494294654e-07
            ],
            "translation" : [
                0,
                3.3333330154418945,
                0
            ]
        }
    ],
    "materials" : [
        {
            "doubleSided" : true,
            "name" : "Material",
            "pbrMetallicRoughness" : {
                "baseColorFactor" : [
                    0.28744035959243774,
                    0.03560091182589531,
                    0.879622220993042,
                    1
                ],
                "metallicFactor" : 0.5,
                "roughnessFactor" : 0.4000000059604645
            }
        }
    ],
    "meshes" : [
        {
            "name" : "Prisma dodecagonal",
            "primitives" : [
                {
                    "attributes" : {
                        "POSITION" : 0,
                        "NORMAL" : 1,
                        "TEXCOORD_0" : 2
                    },
                    "indices" : 3,
                    "material" : 0
                }
            ]
        }
    ],
    "accessors" : [
        {
            "bufferView" : 0,
            "componentType" : 5126,
            "count" : 17189,
            "max" : [
                5.14769983291626,
                3.3046998977661133,
                5.243000030517578
            ],
            "min" : [
                -5.244200229644775,
                0.4156000018119812,
                -5.243599891662598
            ],
            "type" : "VEC3"
        },
        {
            "bufferView" : 1,
            "componentType" : 5126,
            "count" : 17189,
            "type" : "VEC3"
        },
        {
            "bufferView" : 2,
            "componentType" : 5126,
            "count" : 17189,
            "type" : "VEC2"
        },
        {
            "bufferView" : 3,
            "componentType" : 5123,
            "count" : 102528,
            "type" : "SCALAR"
        }
    ],
    "bufferViews" : [
        {
            "buffer" : 0,
            "byteLength" : 206268,
            "byteOffset" : 0
        },
        {
            "buffer" : 0,
            "byteLength" : 206268,
            "byteOffset" : 206268
        },
        {
            "buffer" : 0,
            "byteLength" : 137512,
            "byteOffset" : 412536
        },
        {
            "buffer" : 0,
            "byteLength" : 205056,
            "byteOffset" : 550048
        }
    ],
    "buffers" : [
        {
            "byteLength" : 755104,
            "uri" : "data:application/octet-stream;base64,"
        }
    ]
}
