{
    "asset" : {
        "generator" : "Khronos glTF Blender I/O v3.2.40",
        "version" : "2.0"
    },
    "scene" : 0,
    "scenes" : [
        {
            "name" : "Scene",
            "nodes" : [
                0
            ]
        }
    ],
    "nodes" : [
        {
            "mesh" : 0,
            "name" : "J19.CupulaCuadradaElongada",
            "rotation" : [
                -1,
                0,
                0,
                1.6292068494294654e-07
            ],
            "translation" : [
                0,
                3.5899999141693115,
                0
            ]
        }
    ],
    "materials" : [
        {
            "doubleSided" : true,
            "name" : "Material",
            "pbrMetallicRoughness" : {
                "baseColorFactor" : [
                    0.33716320991516113,
                    0.21952584385871887,
                    0.49693286418914795,
                    1
                ],
                "metallicFactor" : 0,
                "roughnessFactor" : 0.4000000059604645
            }
        },
        {
            "doubleSided" : true,
            "name" : "Material.001",
            "pbrMetallicRoughness" : {
                "baseColorFactor" : [
                    0.09530698508024216,
                    0.24228079617023468,
                    0.5647115707397461,
                    1
                ],
                "metallicFactor" : 0,
                "roughnessFactor" : 0.5
            }
        }
    ],
    "meshes" : [
        {
            "name" : "J19.CupulaCuadradaElongada",
            "primitives" : [
                {
                    "attributes" : {
                        "POSITION" : 0,
                        "NORMAL" : 1
                    },
                    "indices" : 2,
                    "material" : 0
                },
                {
                    "attributes" : {
                        "POSITION" : 3,
                        "NORMAL" : 4
                    },
                    "indices" : 5,
                    "material" : 1
                }
            ]
        }
    ],
    "accessors" : [
        {
            "bufferView" : 0,
            "componentType" : 5126,
            "count" : 82,
            "max" : [
                8.628561973571777,
                3.5740671157836914,
                8.628561973571777
            ],
            "min" : [
                -8.628561973571777,
                -8.628561973571777,
                -8.628561973571777
            ],
            "type" : "VEC3"
        },
        {
            "bufferView" : 1,
            "componentType" : 5126,
            "count" : 82,
            "type" : "VEC3"
        },
        {
            "bufferView" : 2,
            "componentType" : 5123,
            "count" : 96,
            "type" : "SCALAR"
        },
        {
            "bufferView" : 3,
            "componentType" : 5126,
            "count" : 12,
            "max" : [
                8.628561973571777,
                -3.5740671157836914,
                8.628561973571777
            ],
            "min" : [
                -8.628561973571777,
                -8.628561973571777,
                -8.628561973571777
            ],
            "type" : "VEC3"
        },
        {
            "bufferView" : 4,
            "componentType" : 5126,
            "count" : 12,
            "type" : "VEC3"
        },
        {
            "bufferView" : 5,
            "componentType" : 5123,
            "count" : 12,
            "type" : "SCALAR"
        }
    ],
    "bufferViews" : [
        {
            "buffer" : 0,
            "byteLength" : 984,
            "byteOffset" : 0
        },
        {
            "buffer" : 0,
            "byteLength" : 984,
            "byteOffset" : 984
        },
        {
            "buffer" : 0,
            "byteLength" : 192,
            "byteOffset" : 1968
        },
        {
            "buffer" : 0,
            "byteLength" : 144,
            "byteOffset" : 2160
        },
        {
            "buffer" : 0,
            "byteLength" : 144,
            "byteOffset" : 2304
        },
        {
            "buffer" : 0,
            "byteLength" : 24,
            "byteOffset" : 2448
        }
    ],
    "buffers" : [
        {
            "byteLength" : 2472,
            "uri" : "data:application/octet-stream;base64,"
        }
    ]
}
