{
    "asset" : {
        "generator" : "Khronos glTF Blender I/O v3.2.40",
        "version" : "2.0"
    },
    "scene" : 0,
    "scenes" : [
        {
            "name" : "Scene",
            "nodes" : [
                0
            ]
        }
    ],
    "nodes" : [
        {
            "mesh" : 0,
            "name" : "J20.CupulaPentagonalElongada",
            "rotation" : [
                0,
                0,
                -0.27353954315185547,
                0.9618607759475708
            ],
            "translation" : [
                0,
                3,
                0
            ]
        }
    ],
    "materials" : [
        {
            "doubleSided" : true,
            "name" : "Material",
            "pbrMetallicRoughness" : {
                "baseColorFactor" : [
                    0.46207600831985474,
                    0.8307691812515259,
                    0.6653875112533569,
                    1
                ],
                "metallicFactor" : 0,
                "roughnessFactor" : 0.4000000059604645
            }
        },
        {
            "doubleSided" : true,
            "name" : "Material.001",
            "pbrMetallicRoughness" : {
                "baseColorFactor" : [
                    0.06847777962684631,
                    0.4735313057899475,
                    0.07818752527236938,
                    1
                ],
                "metallicFactor" : 0,
                "roughnessFactor" : 0.5
            }
        },
        {
            "doubleSided" : true,
            "name" : "Material.002",
            "pbrMetallicRoughness" : {
                "baseColorFactor" : [
                    0.0009099171147681773,
                    0.46778351068496704,
                    0.47353148460388184,
                    1
                ],
                "metallicFactor" : 0,
                "roughnessFactor" : 0.5
            }
        },
        {
            "doubleSided" : true,
            "name" : "Material.003",
            "pbrMetallicRoughness" : {
                "baseColorFactor" : [
                    0.10946158319711685,
                    0.06480315327644348,
                    0.2015562504529953,
                    1
                ],
                "metallicFactor" : 0,
                "roughnessFactor" : 0.5
            }
        }
    ],
    "meshes" : [
        {
            "name" : "J20.CupulaPentagonalElongada",
            "primitives" : [
                {
                    "attributes" : {
                        "POSITION" : 0,
                        "NORMAL" : 1
                    },
                    "indices" : 2,
                    "material" : 0
                },
                {
                    "attributes" : {
                        "POSITION" : 3,
                        "NORMAL" : 4
                    },
                    "indices" : 5,
                    "material" : 1
                },
                {
                    "attributes" : {
                        "POSITION" : 6,
                        "NORMAL" : 7
                    },
                    "indices" : 8,
                    "material" : 2
                },
                {
                    "attributes" : {
                        "POSITION" : 9,
                        "NORMAL" : 10
                    },
                    "indices" : 11,
                    "material" : 3
                }
            ]
        }
    ],
    "accessors" : [
        {
            "bufferView" : 0,
            "componentType" : 5126,
            "count" : 28,
            "max" : [
                6.1773529052734375,
                7.288589954376221,
                9.55422592163086
            ],
            "min" : [
                -9.281708717346191,
                -2.2656359672546387,
                -9.55422592163086
            ],
            "type" : "VEC3"
        },
        {
            "bufferView" : 1,
            "componentType" : 5126,
            "count" : 28,
            "type" : "VEC3"
        },
        {
            "bufferView" : 2,
            "componentType" : 5123,
            "count" : 30,
            "type" : "SCALAR"
        },
        {
            "bufferView" : 3,
            "componentType" : 5126,
            "count" : 15,
            "max" : [
                6.1773529052734375,
                7.288589954376221,
                9.55422592163086
            ],
            "min" : [
                -9.281708717346191,
                -2.2656359672546387,
                -9.55422592163086
            ],
            "type" : "VEC3"
        },
        {
            "bufferView" : 4,
            "componentType" : 5126,
            "count" : 15,
            "type" : "VEC3"
        },
        {
            "bufferView" : 5,
            "componentType" : 5123,
            "count" : 15,
            "type" : "SCALAR"
        },
        {
            "bufferView" : 6,
            "componentType" : 5126,
            "count" : 9,
            "max" : [
                0.27251699566841125,
                7.288589954376221,
                4.77711296081543
            ],
            "min" : [
                -7.457014083862305,
                2.511476993560791,
                -4.77711296081543
            ],
            "type" : "VEC3"
        },
        {
            "bufferView" : 7,
            "componentType" : 5126,
            "count" : 9,
            "type" : "VEC3"
        },
        {
            "bufferView" : 8,
            "componentType" : 5123,
            "count" : 9,
            "type" : "SCALAR"
        },
        {
            "bufferView" : 9,
            "componentType" : 5126,
            "count" : 84,
            "max" : [
                9.281708717346191,
                7.288589954376221,
                9.55422592163086
            ],
            "min" : [
                -9.281708717346191,
                -7.288589954376221,
                -9.55422592163086
            ],
            "type" : "VEC3"
        },
        {
            "bufferView" : 10,
            "componentType" : 5126,
            "count" : 84,
            "type" : "VEC3"
        },
        {
            "bufferView" : 11,
            "componentType" : 5123,
            "count" : 84,
            "type" : "SCALAR"
        }
    ],
    "bufferViews" : [
        {
            "buffer" : 0,
            "byteLength" : 336,
            "byteOffset" : 0
        },
        {
            "buffer" : 0,
            "byteLength" : 336,
            "byteOffset" : 336
        },
        {
            "buffer" : 0,
            "byteLength" : 60,
            "byteOffset" : 672
        },
        {
            "buffer" : 0,
            "byteLength" : 180,
            "byteOffset" : 732
        },
        {
            "buffer" : 0,
            "byteLength" : 180,
            "byteOffset" : 912
        },
        {
            "buffer" : 0,
            "byteLength" : 30,
            "byteOffset" : 1092
        },
        {
            "buffer" : 0,
            "byteLength" : 108,
            "byteOffset" : 1124
        },
        {
            "buffer" : 0,
            "byteLength" : 108,
            "byteOffset" : 1232
        },
        {
            "buffer" : 0,
            "byteLength" : 18,
            "byteOffset" : 1340
        },
        {
            "buffer" : 0,
            "byteLength" : 1008,
            "byteOffset" : 1360
        },
        {
            "buffer" : 0,
            "byteLength" : 1008,
            "byteOffset" : 2368
        },
        {
            "buffer" : 0,
            "byteLength" : 168,
            "byteOffset" : 3376
        }
    ],
    "buffers" : [
        {
            "byteLength" : 3544,
            "uri" : "data:application/octet-stream;base64,"
        }
    ]
}
