{
    "asset" : {
        "generator" : "Khronos glTF Blender I/O v3.2.40",
        "version" : "2.0"
    },
    "scene" : 0,
    "scenes" : [
        {
            "name" : "Scene",
            "nodes" : [
                0
            ]
        }
    ],
    "nodes" : [
        {
            "mesh" : 0,
            "name" : "J21.RotondaPentagonalElongada",
            "rotation" : [
                0,
                0,
                0.962170422077179,
                0.27244827151298523
            ],
            "translation" : [
                0,
                2.4501638412475586,
                0
            ]
        }
    ],
    "materials" : [
        {
            "doubleSided" : true,
            "name" : "Material",
            "pbrMetallicRoughness" : {
                "baseColorFactor" : [
                    0.10946158319711685,
                    0.06480315327644348,
                    0.2015562504529953,
                    1
                ],
                "metallicFactor" : 0,
                "roughnessFactor" : 0.4000000059604645
            }
        },
        {
            "doubleSided" : true,
            "name" : "Material.001",
            "pbrMetallicRoughness" : {
                "baseColorFactor" : [
                    0.06847777962684631,
                    0.4735313057899475,
                    0.07818752527236938,
                    1
                ],
                "metallicFactor" : 0,
                "roughnessFactor" : 0.5
            }
        },
        {
            "doubleSided" : true,
            "name" : "Material.002",
            "pbrMetallicRoughness" : {
                "baseColorFactor" : [
                    0.0009099171147681773,
                    0.46778351068496704,
                    0.47353148460388184,
                    1
                ],
                "metallicFactor" : 0,
                "roughnessFactor" : 0.5
            }
        }
    ],
    "meshes" : [
        {
            "name" : "J21.RotondaPentagonalElongada",
            "primitives" : [
                {
                    "attributes" : {
                        "POSITION" : 0,
                        "NORMAL" : 1
                    },
                    "indices" : 2,
                    "material" : 0
                },
                {
                    "attributes" : {
                        "POSITION" : 3,
                        "NORMAL" : 4
                    },
                    "indices" : 5,
                    "material" : 1
                },
                {
                    "attributes" : {
                        "POSITION" : 6,
                        "NORMAL" : 7
                    },
                    "indices" : 8,
                    "material" : 2
                }
            ]
        }
    ],
    "accessors" : [
        {
            "bufferView" : 0,
            "componentType" : 5126,
            "count" : 84,
            "max" : [
                7.629764080047607,
                5.991376876831055,
                7.853778839111328
            ],
            "min" : [
                -7.629764080047607,
                -5.991376876831055,
                -7.853778839111328
            ],
            "type" : "VEC3"
        },
        {
            "bufferView" : 1,
            "componentType" : 5126,
            "count" : 84,
            "type" : "VEC3"
        },
        {
            "bufferView" : 2,
            "componentType" : 5123,
            "count" : 84,
            "type" : "SCALAR"
        },
        {
            "bufferView" : 3,
            "componentType" : 5126,
            "count" : 30,
            "max" : [
                9.1297025680542,
                1.8624019622802734,
                7.853778839111328
            ],
            "min" : [
                -5.077917098999023,
                -9.918267250061035,
                -7.853778839111328
            ],
            "type" : "VEC3"
        },
        {
            "bufferView" : 4,
            "componentType" : 5126,
            "count" : 30,
            "type" : "VEC3"
        },
        {
            "bufferView" : 5,
            "componentType" : 5123,
            "count" : 30,
            "type" : "SCALAR"
        },
        {
            "bufferView" : 6,
            "componentType" : 5126,
            "count" : 54,
            "max" : [
                9.1297025680542,
                1.8624019622802734,
                7.853778839111328
            ],
            "min" : [
                -5.077917098999023,
                -9.918267250061035,
                -7.853778839111328
            ],
            "type" : "VEC3"
        },
        {
            "bufferView" : 7,
            "componentType" : 5126,
            "count" : 54,
            "type" : "VEC3"
        },
        {
            "bufferView" : 8,
            "componentType" : 5123,
            "count" : 54,
            "type" : "SCALAR"
        }
    ],
    "bufferViews" : [
        {
            "buffer" : 0,
            "byteLength" : 1008,
            "byteOffset" : 0
        },
        {
            "buffer" : 0,
            "byteLength" : 1008,
            "byteOffset" : 1008
        },
        {
            "buffer" : 0,
            "byteLength" : 168,
            "byteOffset" : 2016
        },
        {
            "buffer" : 0,
            "byteLength" : 360,
            "byteOffset" : 2184
        },
        {
            "buffer" : 0,
            "byteLength" : 360,
            "byteOffset" : 2544
        },
        {
            "buffer" : 0,
            "byteLength" : 60,
            "byteOffset" : 2904
        },
        {
            "buffer" : 0,
            "byteLength" : 648,
            "byteOffset" : 2964
        },
        {
            "buffer" : 0,
            "byteLength" : 648,
            "byteOffset" : 3612
        },
        {
            "buffer" : 0,
            "byteLength" : 108,
            "byteOffset" : 4260
        }
    ],
    "buffers" : [
        {
            "byteLength" : 4368,
            "uri" : "data:application/octet-stream;base64,"
        }
    ]
}
