{
    "asset" : {
        "generator" : "Khronos glTF Blender I/O v3.2.40",
        "version" : "2.0"
    },
    "scene" : 0,
    "scenes" : [
        {
            "name" : "Scene",
            "nodes" : [
                0
            ]
        }
    ],
    "nodes" : [
        {
            "mesh" : 0,
            "name" : "J23.CupulaCuadradaGiroelongada",
            "translation" : [
                0,
                3.174999952316284,
                0
            ]
        }
    ],
    "materials" : [
        {
            "doubleSided" : true,
            "name" : "Material",
            "pbrMetallicRoughness" : {
                "baseColorFactor" : [
                    0.10946158319711685,
                    0.06480315327644348,
                    0.2015562504529953,
                    1
                ],
                "metallicFactor" : 0,
                "roughnessFactor" : 0.4000000059604645
            }
        },
        {
            "doubleSided" : true,
            "name" : "Material.001",
            "pbrMetallicRoughness" : {
                "baseColorFactor" : [
                    0.12743712961673737,
                    0.27889394760131836,
                    0.5906187891960144,
                    1
                ],
                "metallicFactor" : 0,
                "roughnessFactor" : 0.5
            }
        },
        {
            "doubleSided" : true,
            "name" : "Material.002",
            "pbrMetallicRoughness" : {
                "baseColorFactor" : [
                    0.24228081107139587,
                    0.14126303791999817,
                    0.43415367603302,
                    1
                ],
                "metallicFactor" : 0,
                "roughnessFactor" : 0.5
            }
        }
    ],
    "meshes" : [
        {
            "name" : "J23.CupulaCuadradaGiroelongada",
            "primitives" : [
                {
                    "attributes" : {
                        "POSITION" : 0,
                        "NORMAL" : 1
                    },
                    "indices" : 2,
                    "material" : 0
                },
                {
                    "attributes" : {
                        "POSITION" : 3,
                        "NORMAL" : 4
                    },
                    "indices" : 5,
                    "material" : 1
                },
                {
                    "attributes" : {
                        "POSITION" : 6,
                        "NORMAL" : 7
                    },
                    "indices" : 8,
                    "material" : 2
                }
            ]
        }
    ],
    "accessors" : [
        {
            "bufferView" : 0,
            "componentType" : 5126,
            "count" : 60,
            "max" : [
                9.49848747253418,
                3.1270999908447266,
                9.49848747253418
            ],
            "min" : [
                -9.49848747253418,
                -3.1270999908447266,
                -9.49848747253418
            ],
            "type" : "VEC3"
        },
        {
            "bufferView" : 1,
            "componentType" : 5126,
            "count" : 60,
            "type" : "VEC3"
        },
        {
            "bufferView" : 2,
            "componentType" : 5123,
            "count" : 66,
            "type" : "SCALAR"
        },
        {
            "bufferView" : 3,
            "componentType" : 5126,
            "count" : 28,
            "max" : [
                8.775457382202148,
                8.267643928527832,
                8.775457382202148
            ],
            "min" : [
                -8.775457382202148,
                3.1270999908447266,
                -8.775457382202148
            ],
            "type" : "VEC3"
        },
        {
            "bufferView" : 4,
            "componentType" : 5126,
            "count" : 28,
            "type" : "VEC3"
        },
        {
            "bufferView" : 5,
            "componentType" : 5123,
            "count" : 30,
            "type" : "SCALAR"
        },
        {
            "bufferView" : 6,
            "componentType" : 5126,
            "count" : 12,
            "max" : [
                8.775457382202148,
                8.267643928527832,
                8.775457382202148
            ],
            "min" : [
                -8.775457382202148,
                3.1270999908447266,
                -8.775457382202148
            ],
            "type" : "VEC3"
        },
        {
            "bufferView" : 7,
            "componentType" : 5126,
            "count" : 12,
            "type" : "VEC3"
        },
        {
            "bufferView" : 8,
            "componentType" : 5123,
            "count" : 12,
            "type" : "SCALAR"
        }
    ],
    "bufferViews" : [
        {
            "buffer" : 0,
            "byteLength" : 720,
            "byteOffset" : 0
        },
        {
            "buffer" : 0,
            "byteLength" : 720,
            "byteOffset" : 720
        },
        {
            "buffer" : 0,
            "byteLength" : 132,
            "byteOffset" : 1440
        },
        {
            "buffer" : 0,
            "byteLength" : 336,
            "byteOffset" : 1572
        },
        {
            "buffer" : 0,
            "byteLength" : 336,
            "byteOffset" : 1908
        },
        {
            "buffer" : 0,
            "byteLength" : 60,
            "byteOffset" : 2244
        },
        {
            "buffer" : 0,
            "byteLength" : 144,
            "byteOffset" : 2304
        },
        {
            "buffer" : 0,
            "byteLength" : 144,
            "byteOffset" : 2448
        },
        {
            "buffer" : 0,
            "byteLength" : 24,
            "byteOffset" : 2592
        }
    ],
    "buffers" : [
        {
            "byteLength" : 2616,
            "uri" : "data:application/octet-stream;base64,"
        }
    ]
}
