{
    "asset" : {
        "generator" : "Khronos glTF Blender I/O v3.2.40",
        "version" : "2.0"
    },
    "scene" : 0,
    "scenes" : [
        {
            "name" : "Scene",
            "nodes" : [
                0
            ]
        }
    ],
    "nodes" : [
        {
            "mesh" : 0,
            "name" : "J25.RotondaPentagonalGiroelongada",
            "rotation" : [
                0,
                0,
                0.9622262120246887,
                0.2722512483596802
            ],
            "translation" : [
                0,
                2.188750743865967,
                0
            ]
        }
    ],
    "materials" : [
        {
            "doubleSided" : true,
            "name" : "Material",
            "pbrMetallicRoughness" : {
                "baseColorFactor" : [
                    0.0009099171147681773,
                    0.46778351068496704,
                    0.47353148460388184,
                    1
                ],
                "metallicFactor" : 0,
                "roughnessFactor" : 0.4000000059604645
            }
        },
        {
            "doubleSided" : true,
            "name" : "Material.001",
            "pbrMetallicRoughness" : {
                "baseColorFactor" : [
                    0.06847777962684631,
                    0.4735313057899475,
                    0.07818752527236938,
                    1
                ],
                "metallicFactor" : 0,
                "roughnessFactor" : 0.5
            }
        },
        {
            "doubleSided" : true,
            "name" : "Material.002",
            "pbrMetallicRoughness" : {
                "baseColorFactor" : [
                    0.10946158319711685,
                    0.06480315327644348,
                    0.2015562504529953,
                    1
                ],
                "metallicFactor" : 0,
                "roughnessFactor" : 0.5
            }
        }
    ],
    "meshes" : [
        {
            "name" : "J25.RotondaPentagonalGiroelongada",
            "primitives" : [
                {
                    "attributes" : {
                        "POSITION" : 0,
                        "NORMAL" : 1
                    },
                    "indices" : 2,
                    "material" : 0
                },
                {
                    "attributes" : {
                        "POSITION" : 3,
                        "NORMAL" : 4
                    },
                    "indices" : 5,
                    "material" : 1
                },
                {
                    "attributes" : {
                        "POSITION" : 6,
                        "NORMAL" : 7
                    },
                    "indices" : 8,
                    "material" : 2
                }
            ]
        }
    ],
    "accessors" : [
        {
            "bufferView" : 0,
            "componentType" : 5126,
            "count" : 53,
            "max" : [
                9.234089851379395,
                2.213593006134033,
                8.099333763122559
            ],
            "min" : [
                -5.417741775512695,
                -9.935407638549805,
                -8.099333763122559
            ],
            "type" : "VEC3"
        },
        {
            "bufferView" : 1,
            "componentType" : 5126,
            "count" : 53,
            "type" : "VEC3"
        },
        {
            "bufferView" : 2,
            "componentType" : 5123,
            "count" : 54,
            "type" : "SCALAR"
        },
        {
            "bufferView" : 3,
            "componentType" : 5126,
            "count" : 90,
            "max" : [
                9.234089851379395,
                6.094145774841309,
                8.099333763122559
            ],
            "min" : [
                -8.024460792541504,
                -9.935407638549805,
                -8.099333763122559
            ],
            "type" : "VEC3"
        },
        {
            "bufferView" : 4,
            "componentType" : 5126,
            "count" : 90,
            "type" : "VEC3"
        },
        {
            "bufferView" : 5,
            "componentType" : 5123,
            "count" : 90,
            "type" : "SCALAR"
        },
        {
            "bufferView" : 6,
            "componentType" : 5126,
            "count" : 24,
            "max" : [
                5.75494909286499,
                6.094145774841309,
                7.702923774719238
            ],
            "min" : [
                -8.024460792541504,
                -2.4219980239868164,
                -7.702923774719238
            ],
            "type" : "VEC3"
        },
        {
            "bufferView" : 7,
            "componentType" : 5126,
            "count" : 24,
            "type" : "VEC3"
        },
        {
            "bufferView" : 8,
            "componentType" : 5123,
            "count" : 24,
            "type" : "SCALAR"
        }
    ],
    "bufferViews" : [
        {
            "buffer" : 0,
            "byteLength" : 636,
            "byteOffset" : 0
        },
        {
            "buffer" : 0,
            "byteLength" : 636,
            "byteOffset" : 636
        },
        {
            "buffer" : 0,
            "byteLength" : 108,
            "byteOffset" : 1272
        },
        {
            "buffer" : 0,
            "byteLength" : 1080,
            "byteOffset" : 1380
        },
        {
            "buffer" : 0,
            "byteLength" : 1080,
            "byteOffset" : 2460
        },
        {
            "buffer" : 0,
            "byteLength" : 180,
            "byteOffset" : 3540
        },
        {
            "buffer" : 0,
            "byteLength" : 288,
            "byteOffset" : 3720
        },
        {
            "buffer" : 0,
            "byteLength" : 288,
            "byteOffset" : 4008
        },
        {
            "buffer" : 0,
            "byteLength" : 48,
            "byteOffset" : 4296
        }
    ],
    "buffers" : [
        {
            "byteLength" : 4344,
            "uri" : "data:application/octet-stream;base64,"
        }
    ]
}
