{
    "asset" : {
        "generator" : "Khronos glTF Blender I/O v3.2.40",
        "version" : "2.0"
    },
    "scene" : 0,
    "scenes" : [
        {
            "name" : "Scene",
            "nodes" : [
                0
            ]
        }
    ],
    "nodes" : [
        {
            "mesh" : 0,
            "name" : "J31.GirobicupulaPentagonal",
            "rotation" : [
                0,
                0,
                -0.27563735842704773,
                0.9612616896629333
            ]
        }
    ],
    "materials" : [
        {
            "doubleSided" : true,
            "name" : "Material",
            "pbrMetallicRoughness" : {
                "baseColorFactor" : [
                    0.46207600831985474,
                    0.8307691812515259,
                    0.6653875112533569,
                    1
                ],
                "metallicFactor" : 0,
                "roughnessFactor" : 0.4000000059604645
            }
        },
        {
            "doubleSided" : true,
            "name" : "Material.001",
            "pbrMetallicRoughness" : {
                "baseColorFactor" : [
                    0.06847777962684631,
                    0.4735313057899475,
                    0.07818752527236938,
                    1
                ],
                "metallicFactor" : 0,
                "roughnessFactor" : 0.5
            }
        },
        {
            "doubleSided" : true,
            "name" : "Material.002",
            "pbrMetallicRoughness" : {
                "baseColorFactor" : [
                    0.0009099171147681773,
                    0.46778351068496704,
                    0.47353148460388184,
                    1
                ],
                "metallicFactor" : 0,
                "roughnessFactor" : 0.5
            }
        }
    ],
    "meshes" : [
        {
            "name" : "J31.GirobicupulaPentagonal",
            "primitives" : [
                {
                    "attributes" : {
                        "POSITION" : 0,
                        "NORMAL" : 1
                    },
                    "indices" : 2,
                    "material" : 0
                },
                {
                    "attributes" : {
                        "POSITION" : 3,
                        "NORMAL" : 4
                    },
                    "indices" : 5,
                    "material" : 1
                },
                {
                    "attributes" : {
                        "POSITION" : 6,
                        "NORMAL" : 7
                    },
                    "indices" : 8,
                    "material" : 2
                }
            ]
        }
    ],
    "accessors" : [
        {
            "bufferView" : 0,
            "componentType" : 5126,
            "count" : 56,
            "max" : [
                8.090169906616211,
                5,
                10
            ],
            "min" : [
                -8.090169906616211,
                -5,
                -10
            ],
            "type" : "VEC3"
        },
        {
            "bufferView" : 1,
            "componentType" : 5126,
            "count" : 56,
            "type" : "VEC3"
        },
        {
            "bufferView" : 2,
            "componentType" : 5123,
            "count" : 60,
            "type" : "SCALAR"
        },
        {
            "bufferView" : 3,
            "componentType" : 5126,
            "count" : 30,
            "max" : [
                8.090169906616211,
                5,
                10
            ],
            "min" : [
                -8.090169906616211,
                -5,
                -10
            ],
            "type" : "VEC3"
        },
        {
            "bufferView" : 4,
            "componentType" : 5126,
            "count" : 30,
            "type" : "VEC3"
        },
        {
            "bufferView" : 5,
            "componentType" : 5123,
            "count" : 30,
            "type" : "SCALAR"
        },
        {
            "bufferView" : 6,
            "componentType" : 5126,
            "count" : 17,
            "max" : [
                6.180339813232422,
                5,
                5
            ],
            "min" : [
                -6.180339813232422,
                -5,
                -5
            ],
            "type" : "VEC3"
        },
        {
            "bufferView" : 7,
            "componentType" : 5126,
            "count" : 17,
            "type" : "VEC3"
        },
        {
            "bufferView" : 8,
            "componentType" : 5123,
            "count" : 18,
            "type" : "SCALAR"
        }
    ],
    "bufferViews" : [
        {
            "buffer" : 0,
            "byteLength" : 672,
            "byteOffset" : 0
        },
        {
            "buffer" : 0,
            "byteLength" : 672,
            "byteOffset" : 672
        },
        {
            "buffer" : 0,
            "byteLength" : 120,
            "byteOffset" : 1344
        },
        {
            "buffer" : 0,
            "byteLength" : 360,
            "byteOffset" : 1464
        },
        {
            "buffer" : 0,
            "byteLength" : 360,
            "byteOffset" : 1824
        },
        {
            "buffer" : 0,
            "byteLength" : 60,
            "byteOffset" : 2184
        },
        {
            "buffer" : 0,
            "byteLength" : 204,
            "byteOffset" : 2244
        },
        {
            "buffer" : 0,
            "byteLength" : 204,
            "byteOffset" : 2448
        },
        {
            "buffer" : 0,
            "byteLength" : 36,
            "byteOffset" : 2652
        }
    ],
    "buffers" : [
        {
            "byteLength" : 2688,
            "uri" : "data:application/octet-stream;base64,"
        }
    ]
}
