{
    "asset" : {
        "generator" : "Khronos glTF Blender I/O v3.2.40",
        "version" : "2.0"
    },
    "scene" : 0,
    "scenes" : [
        {
            "name" : "Scene",
            "nodes" : [
                0
            ]
        }
    ],
    "nodes" : [
        {
            "mesh" : 0,
            "name" : "J32.OrtocupularrotondaPentagonal",
            "rotation" : [
                0,
                0,
                -0.27563735842704773,
                0.9612616896629333
            ]
        }
    ],
    "materials" : [
        {
            "doubleSided" : true,
            "name" : "Material",
            "pbrMetallicRoughness" : {
                "baseColorFactor" : [
                    0.0009099171147681773,
                    0.46778351068496704,
                    0.47353148460388184,
                    1
                ],
                "metallicFactor" : 0,
                "roughnessFactor" : 0.4000000059604645
            }
        },
        {
            "doubleSided" : true,
            "name" : "Material.001",
            "pbrMetallicRoughness" : {
                "baseColorFactor" : [
                    0.06847777962684631,
                    0.4735313057899475,
                    0.07818752527236938,
                    1
                ],
                "metallicFactor" : 0,
                "roughnessFactor" : 0.5
            }
        },
        {
            "doubleSided" : true,
            "name" : "Material.002",
            "pbrMetallicRoughness" : {
                "baseColorFactor" : [
                    0.46207600831985474,
                    0.8307691812515259,
                    0.6653875112533569,
                    1
                ],
                "metallicFactor" : 0,
                "roughnessFactor" : 0.5
            }
        }
    ],
    "meshes" : [
        {
            "name" : "J32.OrtocupularrotondaPentagonal",
            "primitives" : [
                {
                    "attributes" : {
                        "POSITION" : 0,
                        "NORMAL" : 1
                    },
                    "indices" : 2,
                    "material" : 0
                },
                {
                    "attributes" : {
                        "POSITION" : 3,
                        "NORMAL" : 4
                    },
                    "indices" : 5,
                    "material" : 1
                },
                {
                    "attributes" : {
                        "POSITION" : 6,
                        "NORMAL" : 7
                    },
                    "indices" : 8,
                    "material" : 2
                }
            ]
        }
    ],
    "accessors" : [
        {
            "bufferView" : 0,
            "componentType" : 5126,
            "count" : 62,
            "max" : [
                10,
                5,
                10
            ],
            "min" : [
                -8.090169906616211,
                -10,
                -10
            ],
            "type" : "VEC3"
        },
        {
            "bufferView" : 1,
            "componentType" : 5126,
            "count" : 62,
            "type" : "VEC3"
        },
        {
            "bufferView" : 2,
            "componentType" : 5123,
            "count" : 63,
            "type" : "SCALAR"
        },
        {
            "bufferView" : 3,
            "componentType" : 5126,
            "count" : 45,
            "max" : [
                10,
                5,
                10
            ],
            "min" : [
                -8.090169906616211,
                -10,
                -10
            ],
            "type" : "VEC3"
        },
        {
            "bufferView" : 4,
            "componentType" : 5126,
            "count" : 45,
            "type" : "VEC3"
        },
        {
            "bufferView" : 5,
            "componentType" : 5123,
            "count" : 45,
            "type" : "SCALAR"
        },
        {
            "bufferView" : 6,
            "componentType" : 5126,
            "count" : 28,
            "max" : [
                8.090169906616211,
                5,
                10
            ],
            "min" : [
                -8.090169906616211,
                -5,
                -10
            ],
            "type" : "VEC3"
        },
        {
            "bufferView" : 7,
            "componentType" : 5126,
            "count" : 28,
            "type" : "VEC3"
        },
        {
            "bufferView" : 8,
            "componentType" : 5123,
            "count" : 30,
            "type" : "SCALAR"
        }
    ],
    "bufferViews" : [
        {
            "buffer" : 0,
            "byteLength" : 744,
            "byteOffset" : 0
        },
        {
            "buffer" : 0,
            "byteLength" : 744,
            "byteOffset" : 744
        },
        {
            "buffer" : 0,
            "byteLength" : 126,
            "byteOffset" : 1488
        },
        {
            "buffer" : 0,
            "byteLength" : 540,
            "byteOffset" : 1616
        },
        {
            "buffer" : 0,
            "byteLength" : 540,
            "byteOffset" : 2156
        },
        {
            "buffer" : 0,
            "byteLength" : 90,
            "byteOffset" : 2696
        },
        {
            "buffer" : 0,
            "byteLength" : 336,
            "byteOffset" : 2788
        },
        {
            "buffer" : 0,
            "byteLength" : 336,
            "byteOffset" : 3124
        },
        {
            "buffer" : 0,
            "byteLength" : 60,
            "byteOffset" : 3460
        }
    ],
    "buffers" : [
        {
            "byteLength" : 3520,
            "uri" : "data:application/octet-stream;base64,"
        }
    ]
}
