{
    "asset" : {
        "generator" : "Khronos glTF Blender I/O v3.2.40",
        "version" : "2.0"
    },
    "scene" : 0,
    "scenes" : [
        {
            "name" : "Scene",
            "nodes" : [
                0
            ]
        }
    ],
    "nodes" : [
        {
            "mesh" : 0,
            "name" : "J35.OrtobicupulaTriangularElongada"
        }
    ],
    "materials" : [
        {
            "doubleSided" : true,
            "name" : "Material",
            "pbrMetallicRoughness" : {
                "baseColorFactor" : [
                    0.28744053840637207,
                    0.16826912760734558,
                    0.4507857859134674,
                    1
                ],
                "metallicFactor" : 0,
                "roughnessFactor" : 0.4000000059604645
            }
        },
        {
            "doubleSided" : true,
            "name" : "Material.001",
            "pbrMetallicRoughness" : {
                "baseColorFactor" : [
                    0.027320407330989838,
                    0.19806908071041107,
                    0.5209954380989075,
                    1
                ],
                "metallicFactor" : 0,
                "roughnessFactor" : 0.5
            }
        }
    ],
    "meshes" : [
        {
            "name" : "J35.OrtobicupulaTriangularElongada",
            "primitives" : [
                {
                    "attributes" : {
                        "POSITION" : 0,
                        "NORMAL" : 1
                    },
                    "indices" : 2,
                    "material" : 0
                },
                {
                    "attributes" : {
                        "POSITION" : 3,
                        "NORMAL" : 4
                    },
                    "indices" : 5,
                    "material" : 1
                }
            ]
        }
    ],
    "accessors" : [
        {
            "bufferView" : 0,
            "componentType" : 5126,
            "count" : 66,
            "max" : [
                6.927027225494385,
                6.927027225494385,
                8.566658973693848
            ],
            "min" : [
                -8.566658973693848,
                -8.566658973693848,
                -6.927027225494385
            ],
            "type" : "VEC3"
        },
        {
            "bufferView" : 1,
            "componentType" : 5126,
            "count" : 66,
            "type" : "VEC3"
        },
        {
            "bufferView" : 2,
            "componentType" : 5123,
            "count" : 72,
            "type" : "SCALAR"
        },
        {
            "bufferView" : 3,
            "componentType" : 5126,
            "count" : 24,
            "max" : [
                6.927027225494385,
                6.927027225494385,
                8.566658973693848
            ],
            "min" : [
                -8.566658973693848,
                -8.566658973693848,
                -6.927027225494385
            ],
            "type" : "VEC3"
        },
        {
            "bufferView" : 4,
            "componentType" : 5126,
            "count" : 24,
            "type" : "VEC3"
        },
        {
            "bufferView" : 5,
            "componentType" : 5123,
            "count" : 24,
            "type" : "SCALAR"
        }
    ],
    "bufferViews" : [
        {
            "buffer" : 0,
            "byteLength" : 792,
            "byteOffset" : 0
        },
        {
            "buffer" : 0,
            "byteLength" : 792,
            "byteOffset" : 792
        },
        {
            "buffer" : 0,
            "byteLength" : 144,
            "byteOffset" : 1584
        },
        {
            "buffer" : 0,
            "byteLength" : 288,
            "byteOffset" : 1728
        },
        {
            "buffer" : 0,
            "byteLength" : 288,
            "byteOffset" : 2016
        },
        {
            "buffer" : 0,
            "byteLength" : 48,
            "byteOffset" : 2304
        }
    ],
    "buffers" : [
        {
            "byteLength" : 2352,
            "uri" : "data:application/octet-stream;base64,"
        }
    ]
}
