{
    "asset" : {
        "generator" : "Khronos glTF Blender I/O v3.2.40",
        "version" : "2.0"
    },
    "scene" : 0,
    "scenes" : [
        {
            "name" : "Scene",
            "nodes" : [
                0
            ]
        }
    ],
    "nodes" : [
        {
            "mesh" : 0,
            "name" : "J37.GirobicupulaCuadradaElongada"
        }
    ],
    "materials" : [
        {
            "doubleSided" : true,
            "name" : "Material",
            "pbrMetallicRoughness" : {
                "baseColorFactor" : [
                    0.29177039861679077,
                    0.16826912760734558,
                    0.4507857859134674,
                    1
                ],
                "metallicFactor" : 0,
                "roughnessFactor" : 0.4000000059604645
            }
        },
        {
            "doubleSided" : true,
            "name" : "Material.001",
            "pbrMetallicRoughness" : {
                "baseColorFactor" : [
                    0.12743712961673737,
                    0.27889394760131836,
                    0.5906187891960144,
                    1
                ],
                "metallicFactor" : 0,
                "roughnessFactor" : 0.5
            }
        },
        {
            "doubleSided" : true,
            "name" : "Material.002",
            "pbrMetallicRoughness" : {
                "baseColorFactor" : [
                    0.3813256025314331,
                    0.2581826150417328,
                    0.5271150469779968,
                    1
                ],
                "metallicFactor" : 0,
                "roughnessFactor" : 0.5
            }
        }
    ],
    "meshes" : [
        {
            "name" : "J37.GirobicupulaCuadradaElongada",
            "primitives" : [
                {
                    "attributes" : {
                        "POSITION" : 0,
                        "NORMAL" : 1
                    },
                    "indices" : 2,
                    "material" : 0
                },
                {
                    "attributes" : {
                        "POSITION" : 3,
                        "NORMAL" : 4
                    },
                    "indices" : 5,
                    "material" : 1
                },
                {
                    "attributes" : {
                        "POSITION" : 6,
                        "NORMAL" : 7
                    },
                    "indices" : 8,
                    "material" : 2
                }
            ]
        }
    ],
    "accessors" : [
        {
            "bufferView" : 0,
            "componentType" : 5126,
            "count" : 40,
            "max" : [
                8.628561973571777,
                3.5740671157836914,
                8.628561973571777
            ],
            "min" : [
                -8.628561973571777,
                -3.5740671157836914,
                -8.628561973571777
            ],
            "type" : "VEC3"
        },
        {
            "bufferView" : 1,
            "componentType" : 5126,
            "count" : 40,
            "type" : "VEC3"
        },
        {
            "bufferView" : 2,
            "componentType" : 5123,
            "count" : 48,
            "type" : "SCALAR"
        },
        {
            "bufferView" : 3,
            "componentType" : 5126,
            "count" : 56,
            "max" : [
                8.628561973571777,
                8.628561973571777,
                8.628561973571777
            ],
            "min" : [
                -8.628561973571777,
                -8.628561973571777,
                -8.628561973571777
            ],
            "type" : "VEC3"
        },
        {
            "bufferView" : 4,
            "componentType" : 5126,
            "count" : 56,
            "type" : "VEC3"
        },
        {
            "bufferView" : 5,
            "componentType" : 5123,
            "count" : 60,
            "type" : "SCALAR"
        },
        {
            "bufferView" : 6,
            "componentType" : 5126,
            "count" : 24,
            "max" : [
                8.628561973571777,
                8.628561973571777,
                8.628561973571777
            ],
            "min" : [
                -8.628561973571777,
                -8.628561973571777,
                -8.628561973571777
            ],
            "type" : "VEC3"
        },
        {
            "bufferView" : 7,
            "componentType" : 5126,
            "count" : 24,
            "type" : "VEC3"
        },
        {
            "bufferView" : 8,
            "componentType" : 5123,
            "count" : 24,
            "type" : "SCALAR"
        }
    ],
    "bufferViews" : [
        {
            "buffer" : 0,
            "byteLength" : 480,
            "byteOffset" : 0
        },
        {
            "buffer" : 0,
            "byteLength" : 480,
            "byteOffset" : 480
        },
        {
            "buffer" : 0,
            "byteLength" : 96,
            "byteOffset" : 960
        },
        {
            "buffer" : 0,
            "byteLength" : 672,
            "byteOffset" : 1056
        },
        {
            "buffer" : 0,
            "byteLength" : 672,
            "byteOffset" : 1728
        },
        {
            "buffer" : 0,
            "byteLength" : 120,
            "byteOffset" : 2400
        },
        {
            "buffer" : 0,
            "byteLength" : 288,
            "byteOffset" : 2520
        },
        {
            "buffer" : 0,
            "byteLength" : 288,
            "byteOffset" : 2808
        },
        {
            "buffer" : 0,
            "byteLength" : 48,
            "byteOffset" : 3096
        }
    ],
    "buffers" : [
        {
            "byteLength" : 3144,
            "uri" : "data:application/octet-stream;base64,"
        }
    ]
}
