{
    "asset" : {
        "copyright" : "SOCCI",
        "generator" : "Khronos glTF Blender I/O v3.2.40",
        "version" : "2.0"
    },
    "scene" : 0,
    "scenes" : [
        {
            "name" : "Scene",
            "nodes" : [
                0
            ]
        }
    ],
    "nodes" : [
        {
            "mesh" : 0,
            "name" : "J4.Cupulacuadrada"
        }
    ],
    "materials" : [
        {
            "doubleSided" : true,
            "name" : "Material",
            "pbrMetallicRoughness" : {
                "baseColorFactor" : [
                    0.12743712961673737,
                    0.2831484079360962,
                    0.5906187891960144,
                    1
                ],
                "metallicFactor" : 0,
                "roughnessFactor" : 0.4000000059604645
            }
        },
        {
            "doubleSided" : true,
            "name" : "Material.001",
            "pbrMetallicRoughness" : {
                "baseColorFactor" : [
                    0.3813256025314331,
                    0.2581826150417328,
                    0.5271150469779968,
                    1
                ],
                "metallicFactor" : 0,
                "roughnessFactor" : 0.5
            }
        },
        {
            "doubleSided" : true,
            "name" : "Material.002",
            "pbrMetallicRoughness" : {
                "baseColorFactor" : [
                    0.15592630207538605,
                    0.09758719801902771,
                    0.25015828013420105,
                    1
                ],
                "metallicFactor" : 0,
                "roughnessFactor" : 0.5
            }
        }
    ],
    "meshes" : [
        {
            "name" : "J4.Cupulacuadrada",
            "primitives" : [
                {
                    "attributes" : {
                        "POSITION" : 0,
                        "NORMAL" : 1
                    },
                    "indices" : 2,
                    "material" : 0
                },
                {
                    "attributes" : {
                        "POSITION" : 3,
                        "NORMAL" : 4
                    },
                    "indices" : 5,
                    "material" : 1
                },
                {
                    "attributes" : {
                        "POSITION" : 6,
                        "NORMAL" : 7
                    },
                    "indices" : 8,
                    "material" : 2
                }
            ]
        }
    ],
    "accessors" : [
        {
            "bufferView" : 0,
            "componentType" : 5126,
            "count" : 24,
            "max" : [
                9.238795280456543,
                5.411961078643799,
                9.238795280456543
            ],
            "min" : [
                -9.238795280456543,
                0,
                -9.238795280456543
            ],
            "type" : "VEC3"
        },
        {
            "bufferView" : 1,
            "componentType" : 5126,
            "count" : 24,
            "type" : "VEC3"
        },
        {
            "bufferView" : 2,
            "componentType" : 5123,
            "count" : 30,
            "type" : "SCALAR"
        },
        {
            "bufferView" : 3,
            "componentType" : 5126,
            "count" : 12,
            "max" : [
                9.238795280456543,
                5.411961078643799,
                9.238795280456543
            ],
            "min" : [
                -9.238795280456543,
                0,
                -9.238795280456543
            ],
            "type" : "VEC3"
        },
        {
            "bufferView" : 4,
            "componentType" : 5126,
            "count" : 12,
            "type" : "VEC3"
        },
        {
            "bufferView" : 5,
            "componentType" : 5123,
            "count" : 12,
            "type" : "SCALAR"
        },
        {
            "bufferView" : 6,
            "componentType" : 5126,
            "count" : 8,
            "max" : [
                9.238795280456543,
                0,
                9.238795280456543
            ],
            "min" : [
                -9.238795280456543,
                0,
                -9.238795280456543
            ],
            "type" : "VEC3"
        },
        {
            "bufferView" : 7,
            "componentType" : 5126,
            "count" : 8,
            "type" : "VEC3"
        },
        {
            "bufferView" : 8,
            "componentType" : 5123,
            "count" : 18,
            "type" : "SCALAR"
        }
    ],
    "bufferViews" : [
        {
            "buffer" : 0,
            "byteLength" : 288,
            "byteOffset" : 0
        },
        {
            "buffer" : 0,
            "byteLength" : 288,
            "byteOffset" : 288
        },
        {
            "buffer" : 0,
            "byteLength" : 60,
            "byteOffset" : 576
        },
        {
            "buffer" : 0,
            "byteLength" : 144,
            "byteOffset" : 636
        },
        {
            "buffer" : 0,
            "byteLength" : 144,
            "byteOffset" : 780
        },
        {
            "buffer" : 0,
            "byteLength" : 24,
            "byteOffset" : 924
        },
        {
            "buffer" : 0,
            "byteLength" : 96,
            "byteOffset" : 948
        },
        {
            "buffer" : 0,
            "byteLength" : 96,
            "byteOffset" : 1044
        },
        {
            "buffer" : 0,
            "byteLength" : 36,
            "byteOffset" : 1140
        }
    ],
    "buffers" : [
        {
            "byteLength" : 1176,
            "uri" : "data:application/octet-stream;base64,"
        }
    ]
}
