{
    "asset" : {
        "generator" : "Khronos glTF Blender I/O v3.2.40",
        "version" : "2.0"
    },
    "scene" : 0,
    "scenes" : [
        {
            "name" : "Scene",
            "nodes" : [
                0
            ]
        }
    ],
    "nodes" : [
        {
            "mesh" : 0,
            "name" : "J40.OrtocupularrotondaPentagonalElongada",
            "rotation" : [
                0,
                0,
                0.9612616896629333,
                0.2756374776363373
            ]
        }
    ],
    "materials" : [
        {
            "doubleSided" : true,
            "name" : "Material",
            "pbrMetallicRoughness" : {
                "baseColorFactor" : [
                    0.0009099251474253833,
                    0.4620766341686249,
                    0.4677838087081909,
                    1
                ],
                "metallicFactor" : 0,
                "roughnessFactor" : 0.4000000059604645
            }
        },
        {
            "doubleSided" : true,
            "name" : "Material.001",
            "pbrMetallicRoughness" : {
                "baseColorFactor" : [
                    0.06662555783987045,
                    0.4735313057899475,
                    0.08021995425224304,
                    1
                ],
                "metallicFactor" : 0,
                "roughnessFactor" : 0.5
            }
        },
        {
            "doubleSided" : true,
            "name" : "Material.002",
            "pbrMetallicRoughness" : {
                "baseColorFactor" : [
                    0.29177039861679077,
                    0.16826912760734558,
                    0.4507857859134674,
                    1
                ],
                "metallicFactor" : 0,
                "roughnessFactor" : 0.5
            }
        },
        {
            "doubleSided" : true,
            "name" : "Material.003",
            "pbrMetallicRoughness" : {
                "baseColorFactor" : [
                    0.04373457282781601,
                    0.3662523925304413,
                    0.304987370967865,
                    1
                ],
                "metallicFactor" : 0,
                "roughnessFactor" : 0.5
            }
        },
        {
            "doubleSided" : true,
            "name" : "Material.005",
            "pbrMetallicRoughness" : {
                "baseColorFactor" : [
                    0.46207600831985474,
                    0.8307691812515259,
                    0.6653875112533569,
                    1
                ],
                "metallicFactor" : 0,
                "roughnessFactor" : 0.5
            }
        }
    ],
    "meshes" : [
        {
            "name" : "J40.OrtocupularrotondaPentagonalElongada",
            "primitives" : [
                {
                    "attributes" : {
                        "POSITION" : 0,
                        "NORMAL" : 1
                    },
                    "indices" : 2,
                    "material" : 0
                },
                {
                    "attributes" : {
                        "POSITION" : 3,
                        "NORMAL" : 4
                    },
                    "indices" : 5,
                    "material" : 1
                },
                {
                    "attributes" : {
                        "POSITION" : 6,
                        "NORMAL" : 7
                    },
                    "indices" : 8,
                    "material" : 2
                },
                {
                    "attributes" : {
                        "POSITION" : 9,
                        "NORMAL" : 10
                    },
                    "indices" : 11,
                    "material" : 3
                },
                {
                    "attributes" : {
                        "POSITION" : 12,
                        "NORMAL" : 13
                    },
                    "indices" : 14,
                    "material" : 4
                }
            ]
        }
    ],
    "accessors" : [
        {
            "bufferView" : 0,
            "componentType" : 5126,
            "count" : 54,
            "max" : [
                9.1297025680542,
                1.8624019622802734,
                7.853778839111328
            ],
            "min" : [
                -5.077917098999023,
                -9.918267250061035,
                -7.853778839111328
            ],
            "type" : "VEC3"
        },
        {
            "bufferView" : 1,
            "componentType" : 5126,
            "count" : 54,
            "type" : "VEC3"
        },
        {
            "bufferView" : 2,
            "componentType" : 5123,
            "count" : 54,
            "type" : "SCALAR"
        },
        {
            "bufferView" : 3,
            "componentType" : 5126,
            "count" : 30,
            "max" : [
                9.1297025680542,
                1.8624019622802734,
                7.853778839111328
            ],
            "min" : [
                -5.077917098999023,
                -9.918267250061035,
                -7.853778839111328
            ],
            "type" : "VEC3"
        },
        {
            "bufferView" : 4,
            "componentType" : 5126,
            "count" : 30,
            "type" : "VEC3"
        },
        {
            "bufferView" : 5,
            "componentType" : 5123,
            "count" : 30,
            "type" : "SCALAR"
        },
        {
            "bufferView" : 6,
            "componentType" : 5126,
            "count" : 60,
            "max" : [
                7.629764080047607,
                5.991376876831055,
                7.853778839111328
            ],
            "min" : [
                -7.629764080047607,
                -5.991376876831055,
                -7.853778839111328
            ],
            "type" : "VEC3"
        },
        {
            "bufferView" : 7,
            "componentType" : 5126,
            "count" : 60,
            "type" : "VEC3"
        },
        {
            "bufferView" : 8,
            "componentType" : 5123,
            "count" : 60,
            "type" : "SCALAR"
        },
        {
            "bufferView" : 9,
            "componentType" : 5126,
            "count" : 28,
            "max" : [
                5.077917098999023,
                5.991376876831055,
                7.853778839111328
            ],
            "min" : [
                -7.629764080047607,
                -1.8624019622802734,
                -7.853778839111328
            ],
            "type" : "VEC3"
        },
        {
            "bufferView" : 10,
            "componentType" : 5126,
            "count" : 28,
            "type" : "VEC3"
        },
        {
            "bufferView" : 11,
            "componentType" : 5123,
            "count" : 30,
            "type" : "SCALAR"
        },
        {
            "bufferView" : 12,
            "componentType" : 5126,
            "count" : 24,
            "max" : [
                5.077917098999023,
                5.991376876831055,
                7.853778839111328
            ],
            "min" : [
                -7.629764080047607,
                -1.8624019622802734,
                -7.853778839111328
            ],
            "type" : "VEC3"
        },
        {
            "bufferView" : 13,
            "componentType" : 5126,
            "count" : 24,
            "type" : "VEC3"
        },
        {
            "bufferView" : 14,
            "componentType" : 5123,
            "count" : 24,
            "type" : "SCALAR"
        }
    ],
    "bufferViews" : [
        {
            "buffer" : 0,
            "byteLength" : 648,
            "byteOffset" : 0
        },
        {
            "buffer" : 0,
            "byteLength" : 648,
            "byteOffset" : 648
        },
        {
            "buffer" : 0,
            "byteLength" : 108,
            "byteOffset" : 1296
        },
        {
            "buffer" : 0,
            "byteLength" : 360,
            "byteOffset" : 1404
        },
        {
            "buffer" : 0,
            "byteLength" : 360,
            "byteOffset" : 1764
        },
        {
            "buffer" : 0,
            "byteLength" : 60,
            "byteOffset" : 2124
        },
        {
            "buffer" : 0,
            "byteLength" : 720,
            "byteOffset" : 2184
        },
        {
            "buffer" : 0,
            "byteLength" : 720,
            "byteOffset" : 2904
        },
        {
            "buffer" : 0,
            "byteLength" : 120,
            "byteOffset" : 3624
        },
        {
            "buffer" : 0,
            "byteLength" : 336,
            "byteOffset" : 3744
        },
        {
            "buffer" : 0,
            "byteLength" : 336,
            "byteOffset" : 4080
        },
        {
            "buffer" : 0,
            "byteLength" : 60,
            "byteOffset" : 4416
        },
        {
            "buffer" : 0,
            "byteLength" : 288,
            "byteOffset" : 4476
        },
        {
            "buffer" : 0,
            "byteLength" : 288,
            "byteOffset" : 4764
        },
        {
            "buffer" : 0,
            "byteLength" : 48,
            "byteOffset" : 5052
        }
    ],
    "buffers" : [
        {
            "byteLength" : 5100,
            "uri" : "data:application/octet-stream;base64,"
        }
    ]
}
