{
    "asset" : {
        "generator" : "Khronos glTF Blender I/O v3.2.40",
        "version" : "2.0"
    },
    "scene" : 0,
    "scenes" : [
        {
            "name" : "Scene",
            "nodes" : [
                0
            ]
        }
    ],
    "nodes" : [
        {
            "mesh" : 0,
            "name" : "J42.OrtobirrotondaPentagonalElongada",
            "rotation" : [
                0,
                0,
                -0.27563735842704773,
                0.9612616896629333
            ]
        }
    ],
    "materials" : [
        {
            "doubleSided" : true,
            "name" : "Material",
            "pbrMetallicRoughness" : {
                "baseColorFactor" : [
                    0.0009099251474253833,
                    0.4620766341686249,
                    0.4677838087081909,
                    1
                ],
                "metallicFactor" : 0,
                "roughnessFactor" : 0.4000000059604645
            }
        },
        {
            "doubleSided" : true,
            "name" : "Material.001",
            "pbrMetallicRoughness" : {
                "baseColorFactor" : [
                    0.06662555783987045,
                    0.4735313057899475,
                    0.08021995425224304,
                    1
                ],
                "metallicFactor" : 0,
                "roughnessFactor" : 0.5
            }
        },
        {
            "doubleSided" : true,
            "name" : "Material.002",
            "pbrMetallicRoughness" : {
                "baseColorFactor" : [
                    0.29177039861679077,
                    0.16826912760734558,
                    0.4507857859134674,
                    1
                ],
                "metallicFactor" : 0,
                "roughnessFactor" : 0.5
            }
        }
    ],
    "meshes" : [
        {
            "name" : "J42.OrtobirrotondaPentagonalElongada",
            "primitives" : [
                {
                    "attributes" : {
                        "POSITION" : 0,
                        "NORMAL" : 1
                    },
                    "indices" : 2,
                    "material" : 0
                },
                {
                    "attributes" : {
                        "POSITION" : 3,
                        "NORMAL" : 4
                    },
                    "indices" : 5,
                    "material" : 1
                },
                {
                    "attributes" : {
                        "POSITION" : 6,
                        "NORMAL" : 7
                    },
                    "indices" : 8,
                    "material" : 2
                }
            ]
        }
    ],
    "accessors" : [
        {
            "bufferView" : 0,
            "componentType" : 5126,
            "count" : 106,
            "max" : [
                8.300557136535645,
                9.918267250061035,
                7.853778839111328
            ],
            "min" : [
                -9.1297025680542,
                -9.503693580627441,
                -7.853778839111328
            ],
            "type" : "VEC3"
        },
        {
            "bufferView" : 1,
            "componentType" : 5126,
            "count" : 106,
            "type" : "VEC3"
        },
        {
            "bufferView" : 2,
            "componentType" : 5123,
            "count" : 108,
            "type" : "SCALAR"
        },
        {
            "bufferView" : 3,
            "componentType" : 5126,
            "count" : 60,
            "max" : [
                8.300557136535645,
                9.918267250061035,
                7.853778839111328
            ],
            "min" : [
                -9.1297025680542,
                -9.503693580627441,
                -7.853778839111328
            ],
            "type" : "VEC3"
        },
        {
            "bufferView" : 4,
            "componentType" : 5126,
            "count" : 60,
            "type" : "VEC3"
        },
        {
            "bufferView" : 5,
            "componentType" : 5123,
            "count" : 60,
            "type" : "SCALAR"
        },
        {
            "bufferView" : 6,
            "componentType" : 5126,
            "count" : 60,
            "max" : [
                7.629764080047607,
                5.991376876831055,
                7.853778839111328
            ],
            "min" : [
                -7.629764080047607,
                -5.991376876831055,
                -7.853778839111328
            ],
            "type" : "VEC3"
        },
        {
            "bufferView" : 7,
            "componentType" : 5126,
            "count" : 60,
            "type" : "VEC3"
        },
        {
            "bufferView" : 8,
            "componentType" : 5123,
            "count" : 60,
            "type" : "SCALAR"
        }
    ],
    "bufferViews" : [
        {
            "buffer" : 0,
            "byteLength" : 1272,
            "byteOffset" : 0
        },
        {
            "buffer" : 0,
            "byteLength" : 1272,
            "byteOffset" : 1272
        },
        {
            "buffer" : 0,
            "byteLength" : 216,
            "byteOffset" : 2544
        },
        {
            "buffer" : 0,
            "byteLength" : 720,
            "byteOffset" : 2760
        },
        {
            "buffer" : 0,
            "byteLength" : 720,
            "byteOffset" : 3480
        },
        {
            "buffer" : 0,
            "byteLength" : 120,
            "byteOffset" : 4200
        },
        {
            "buffer" : 0,
            "byteLength" : 720,
            "byteOffset" : 4320
        },
        {
            "buffer" : 0,
            "byteLength" : 720,
            "byteOffset" : 5040
        },
        {
            "buffer" : 0,
            "byteLength" : 120,
            "byteOffset" : 5760
        }
    ],
    "buffers" : [
        {
            "byteLength" : 5880,
            "uri" : "data:application/octet-stream;base64,"
        }
    ]
}
