{
    "asset" : {
        "generator" : "Khronos glTF Blender I/O v3.2.40",
        "version" : "2.0"
    },
    "scene" : 0,
    "scenes" : [
        {
            "name" : "Scene",
            "nodes" : [
                0
            ]
        }
    ],
    "nodes" : [
        {
            "mesh" : 0,
            "name" : "J47.CupularrotondaPentagonalGiroelongada",
            "rotation" : [
                0,
                0,
                0.9612616896629333,
                0.2756374776363373
            ]
        }
    ],
    "materials" : [
        {
            "doubleSided" : true,
            "name" : "Material",
            "pbrMetallicRoughness" : {
                "baseColorFactor" : [
                    0.0009099251474253833,
                    0.4620766341686249,
                    0.4677838087081909,
                    1
                ],
                "metallicFactor" : 0,
                "roughnessFactor" : 0.4000000059604645
            }
        },
        {
            "doubleSided" : true,
            "name" : "Material.001",
            "pbrMetallicRoughness" : {
                "baseColorFactor" : [
                    0.06662555783987045,
                    0.4735313057899475,
                    0.08021995425224304,
                    1
                ],
                "metallicFactor" : 0,
                "roughnessFactor" : 0.5
            }
        },
        {
            "doubleSided" : true,
            "name" : "Material.002",
            "pbrMetallicRoughness" : {
                "baseColorFactor" : [
                    0.3813256025314331,
                    0.2581826150417328,
                    0.5271150469779968,
                    1
                ],
                "metallicFactor" : 0,
                "roughnessFactor" : 0.5
            }
        },
        {
            "doubleSided" : true,
            "name" : "Material.003",
            "pbrMetallicRoughness" : {
                "baseColorFactor" : [
                    0.04373457282781601,
                    0.3662523925304413,
                    0.304987370967865,
                    1
                ],
                "metallicFactor" : 0,
                "roughnessFactor" : 0.5
            }
        }
    ],
    "meshes" : [
        {
            "name" : "J47.CupularrotondaPentagonalGiroelongada",
            "primitives" : [
                {
                    "attributes" : {
                        "POSITION" : 0,
                        "NORMAL" : 1
                    },
                    "indices" : 2,
                    "material" : 0
                },
                {
                    "attributes" : {
                        "POSITION" : 3,
                        "NORMAL" : 4
                    },
                    "indices" : 5,
                    "material" : 1
                },
                {
                    "attributes" : {
                        "POSITION" : 6,
                        "NORMAL" : 7
                    },
                    "indices" : 8,
                    "material" : 2
                },
                {
                    "attributes" : {
                        "POSITION" : 9,
                        "NORMAL" : 10
                    },
                    "indices" : 11,
                    "material" : 3
                }
            ]
        }
    ],
    "accessors" : [
        {
            "bufferView" : 0,
            "componentType" : 5126,
            "count" : 75,
            "max" : [
                9.234089851379395,
                6.203711032867432,
                8.099333763122559
            ],
            "min" : [
                -8.024460792541504,
                -9.935407638549805,
                -8.099333763122559
            ],
            "type" : "VEC3"
        },
        {
            "bufferView" : 1,
            "componentType" : 5126,
            "count" : 75,
            "type" : "VEC3"
        },
        {
            "bufferView" : 2,
            "componentType" : 5123,
            "count" : 78,
            "type" : "SCALAR"
        },
        {
            "bufferView" : 3,
            "componentType" : 5126,
            "count" : 30,
            "max" : [
                9.234089851379395,
                2.213593006134033,
                8.099333763122559
            ],
            "min" : [
                -5.417741775512695,
                -9.935407638549805,
                -8.099333763122559
            ],
            "type" : "VEC3"
        },
        {
            "bufferView" : 4,
            "componentType" : 5126,
            "count" : 30,
            "type" : "VEC3"
        },
        {
            "bufferView" : 5,
            "componentType" : 5123,
            "count" : 30,
            "type" : "SCALAR"
        },
        {
            "bufferView" : 6,
            "componentType" : 5126,
            "count" : 60,
            "max" : [
                7.687254905700684,
                6.094145774841309,
                8.099333763122559
            ],
            "min" : [
                -8.024460792541504,
                -5.885741233825684,
                -8.099333763122559
            ],
            "type" : "VEC3"
        },
        {
            "bufferView" : 7,
            "componentType" : 5126,
            "count" : 60,
            "type" : "VEC3"
        },
        {
            "bufferView" : 8,
            "componentType" : 5123,
            "count" : 60,
            "type" : "SCALAR"
        },
        {
            "bufferView" : 9,
            "componentType" : 5126,
            "count" : 30,
            "max" : [
                5.75494909286499,
                6.203711032867432,
                7.702923774719238
            ],
            "min" : [
                -8.024460792541504,
                -2.4219980239868164,
                -7.702923774719238
            ],
            "type" : "VEC3"
        },
        {
            "bufferView" : 10,
            "componentType" : 5126,
            "count" : 30,
            "type" : "VEC3"
        },
        {
            "bufferView" : 11,
            "componentType" : 5123,
            "count" : 30,
            "type" : "SCALAR"
        }
    ],
    "bufferViews" : [
        {
            "buffer" : 0,
            "byteLength" : 900,
            "byteOffset" : 0
        },
        {
            "buffer" : 0,
            "byteLength" : 900,
            "byteOffset" : 900
        },
        {
            "buffer" : 0,
            "byteLength" : 156,
            "byteOffset" : 1800
        },
        {
            "buffer" : 0,
            "byteLength" : 360,
            "byteOffset" : 1956
        },
        {
            "buffer" : 0,
            "byteLength" : 360,
            "byteOffset" : 2316
        },
        {
            "buffer" : 0,
            "byteLength" : 60,
            "byteOffset" : 2676
        },
        {
            "buffer" : 0,
            "byteLength" : 720,
            "byteOffset" : 2736
        },
        {
            "buffer" : 0,
            "byteLength" : 720,
            "byteOffset" : 3456
        },
        {
            "buffer" : 0,
            "byteLength" : 120,
            "byteOffset" : 4176
        },
        {
            "buffer" : 0,
            "byteLength" : 360,
            "byteOffset" : 4296
        },
        {
            "buffer" : 0,
            "byteLength" : 360,
            "byteOffset" : 4656
        },
        {
            "buffer" : 0,
            "byteLength" : 60,
            "byteOffset" : 5016
        }
    ],
    "buffers" : [
        {
            "byteLength" : 5076,
            "uri" : "data:application/octet-stream;base64,"
        }
    ]
}
