{
    "asset" : {
        "generator" : "Khronos glTF Blender I/O v3.2.40",
        "version" : "2.0"
    },
    "scene" : 0,
    "scenes" : [
        {
            "name" : "Scene",
            "nodes" : [
                0
            ]
        }
    ],
    "nodes" : [
        {
            "mesh" : 0,
            "name" : "J48.BirrotondaPentagonalGiroelongada",
            "rotation" : [
                0,
                0,
                -0.27563735842704773,
                0.9612616896629333
            ]
        }
    ],
    "materials" : [
        {
            "doubleSided" : true,
            "name" : "Material",
            "pbrMetallicRoughness" : {
                "baseColorFactor" : [
                    0.0009099251474253833,
                    0.4620766341686249,
                    0.4677838087081909,
                    1
                ],
                "metallicFactor" : 0,
                "roughnessFactor" : 0.4000000059604645
            }
        },
        {
            "doubleSided" : true,
            "name" : "Material.001",
            "pbrMetallicRoughness" : {
                "baseColorFactor" : [
                    0.06662555783987045,
                    0.4735313057899475,
                    0.08021995425224304,
                    1
                ],
                "metallicFactor" : 0,
                "roughnessFactor" : 0.5
            }
        },
        {
            "doubleSided" : true,
            "name" : "Material.002",
            "pbrMetallicRoughness" : {
                "baseColorFactor" : [
                    0.3813256025314331,
                    0.2581826150417328,
                    0.5271150469779968,
                    1
                ],
                "metallicFactor" : 0,
                "roughnessFactor" : 0.5
            }
        }
    ],
    "meshes" : [
        {
            "name" : "J48.BirrotondaPentagonalGiroelongada",
            "primitives" : [
                {
                    "attributes" : {
                        "POSITION" : 0,
                        "NORMAL" : 1
                    },
                    "indices" : 2,
                    "material" : 0
                },
                {
                    "attributes" : {
                        "POSITION" : 3,
                        "NORMAL" : 4
                    },
                    "indices" : 5,
                    "material" : 1
                },
                {
                    "attributes" : {
                        "POSITION" : 6,
                        "NORMAL" : 7
                    },
                    "indices" : 8,
                    "material" : 2
                }
            ]
        }
    ],
    "accessors" : [
        {
            "bufferView" : 0,
            "componentType" : 5126,
            "count" : 108,
            "max" : [
                8.379019737243652,
                9.82584285736084,
                8.099333763122559
            ],
            "min" : [
                -8.947244644165039,
                -9.507872581481934,
                -8.099333763122559
            ],
            "type" : "VEC3"
        },
        {
            "bufferView" : 1,
            "componentType" : 5126,
            "count" : 108,
            "type" : "VEC3"
        },
        {
            "bufferView" : 2,
            "componentType" : 5123,
            "count" : 108,
            "type" : "SCALAR"
        },
        {
            "bufferView" : 3,
            "componentType" : 5126,
            "count" : 60,
            "max" : [
                8.379019737243652,
                9.82584285736084,
                8.099333763122559
            ],
            "min" : [
                -8.947244644165039,
                -9.507872581481934,
                -8.099333763122559
            ],
            "type" : "VEC3"
        },
        {
            "bufferView" : 4,
            "componentType" : 5126,
            "count" : 60,
            "type" : "VEC3"
        },
        {
            "bufferView" : 5,
            "componentType" : 5123,
            "count" : 60,
            "type" : "SCALAR"
        },
        {
            "bufferView" : 6,
            "componentType" : 5126,
            "count" : 60,
            "max" : [
                7.687254905700684,
                6.094145774841309,
                8.099333763122559
            ],
            "min" : [
                -8.024460792541504,
                -5.885741233825684,
                -8.099333763122559
            ],
            "type" : "VEC3"
        },
        {
            "bufferView" : 7,
            "componentType" : 5126,
            "count" : 60,
            "type" : "VEC3"
        },
        {
            "bufferView" : 8,
            "componentType" : 5123,
            "count" : 60,
            "type" : "SCALAR"
        }
    ],
    "bufferViews" : [
        {
            "buffer" : 0,
            "byteLength" : 1296,
            "byteOffset" : 0
        },
        {
            "buffer" : 0,
            "byteLength" : 1296,
            "byteOffset" : 1296
        },
        {
            "buffer" : 0,
            "byteLength" : 216,
            "byteOffset" : 2592
        },
        {
            "buffer" : 0,
            "byteLength" : 720,
            "byteOffset" : 2808
        },
        {
            "buffer" : 0,
            "byteLength" : 720,
            "byteOffset" : 3528
        },
        {
            "buffer" : 0,
            "byteLength" : 120,
            "byteOffset" : 4248
        },
        {
            "buffer" : 0,
            "byteLength" : 720,
            "byteOffset" : 4368
        },
        {
            "buffer" : 0,
            "byteLength" : 720,
            "byteOffset" : 5088
        },
        {
            "buffer" : 0,
            "byteLength" : 120,
            "byteOffset" : 5808
        }
    ],
    "buffers" : [
        {
            "byteLength" : 5928,
            "uri" : "data:application/octet-stream;base64,"
        }
    ]
}
