{
    "asset" : {
        "generator" : "Khronos glTF Blender I/O v3.2.43",
        "version" : "2.0"
    },
    "scene" : 0,
    "scenes" : [
        {
            "name" : "Scene",
            "nodes" : [
                0
            ]
        }
    ],
    "nodes" : [
        {
            "mesh" : 0,
            "name" : "J67.CuboTruncadoBiaumentado",
            "translation" : [
                0,
                9.5,
                0
            ]
        }
    ],
    "materials" : [
        {
            "doubleSided" : true,
            "name" : "Octagono",
            "pbrMetallicRoughness" : {
                "baseColorFactor" : [
                    0.24620112776756287,
                    0.14702706038951874,
                    0.35153257846832275,
                    1
                ],
                "roughnessFactor" : 0.5
            }
        },
        {
            "doubleSided" : true,
            "name" : "triangulo cubo truncado",
            "pbrMetallicRoughness" : {
                "baseColorFactor" : [
                    0.46207648515701294,
                    0.3049869239330292,
                    0.5647116303443909,
                    1
                ],
                "metallicFactor" : 0,
                "roughnessFactor" : 0.5
            }
        },
        {
            "doubleSided" : true,
            "name" : "triangulo cuboctaedro",
            "pbrMetallicRoughness" : {
                "baseColorFactor" : [
                    0.028425561264157295,
                    0.19806908071041107,
                    0.5209954380989075,
                    1
                ],
                "roughnessFactor" : 0.5
            }
        },
        {
            "doubleSided" : true,
            "name" : "cuadro cuboctaedro",
            "pbrMetallicRoughness" : {
                "baseColorFactor" : [
                    0.28744053840637207,
                    0.168269082903862,
                    0.4452010989189148,
                    1
                ],
                "roughnessFactor" : 0.5
            }
        }
    ],
    "meshes" : [
        {
            "name" : "J67.CuboTruncadoBiaumentado",
            "primitives" : [
                {
                    "attributes" : {
                        "POSITION" : 0,
                        "NORMAL" : 1
                    },
                    "indices" : 2,
                    "material" : 0
                },
                {
                    "attributes" : {
                        "POSITION" : 3,
                        "NORMAL" : 4
                    },
                    "indices" : 5,
                    "material" : 1
                },
                {
                    "attributes" : {
                        "POSITION" : 6,
                        "NORMAL" : 7
                    },
                    "indices" : 8,
                    "material" : 2
                },
                {
                    "attributes" : {
                        "POSITION" : 9,
                        "NORMAL" : 10
                    },
                    "indices" : 11,
                    "material" : 3
                }
            ]
        }
    ],
    "accessors" : [
        {
            "bufferView" : 0,
            "componentType" : 5126,
            "count" : 46,
            "max" : [
                5.915332794189453,
                5.915332794189453,
                5.915332794189453
            ],
            "min" : [
                -5.915332794189453,
                -5.915332794189453,
                -5.915332794189453
            ],
            "type" : "VEC3"
        },
        {
            "bufferView" : 1,
            "componentType" : 5126,
            "count" : 46,
            "type" : "VEC3"
        },
        {
            "bufferView" : 2,
            "componentType" : 5123,
            "count" : 72,
            "type" : "SCALAR"
        },
        {
            "bufferView" : 3,
            "componentType" : 5126,
            "count" : 24,
            "max" : [
                5.915332794189453,
                5.915332794189453,
                5.915332794189453
            ],
            "min" : [
                -5.915332794189453,
                -5.915332794189453,
                -5.915332794189453
            ],
            "type" : "VEC3"
        },
        {
            "bufferView" : 4,
            "componentType" : 5126,
            "count" : 24,
            "type" : "VEC3"
        },
        {
            "bufferView" : 5,
            "componentType" : 5123,
            "count" : 24,
            "type" : "SCALAR"
        },
        {
            "bufferView" : 6,
            "componentType" : 5126,
            "count" : 56,
            "max" : [
                5.915332794189453,
                9.380455017089844,
                5.915332794189453
            ],
            "min" : [
                -5.915332794189453,
                -9.380455017089844,
                -5.915332794189453
            ],
            "type" : "VEC3"
        },
        {
            "bufferView" : 7,
            "componentType" : 5126,
            "count" : 56,
            "type" : "VEC3"
        },
        {
            "bufferView" : 8,
            "componentType" : 5123,
            "count" : 60,
            "type" : "SCALAR"
        },
        {
            "bufferView" : 9,
            "componentType" : 5126,
            "count" : 24,
            "max" : [
                5.915332794189453,
                9.380455017089844,
                5.915332794189453
            ],
            "min" : [
                -5.915332794189453,
                -9.380455017089844,
                -5.915332794189453
            ],
            "type" : "VEC3"
        },
        {
            "bufferView" : 10,
            "componentType" : 5126,
            "count" : 24,
            "type" : "VEC3"
        },
        {
            "bufferView" : 11,
            "componentType" : 5123,
            "count" : 24,
            "type" : "SCALAR"
        }
    ],
    "bufferViews" : [
        {
            "buffer" : 0,
            "byteLength" : 552,
            "byteOffset" : 0
        },
        {
            "buffer" : 0,
            "byteLength" : 552,
            "byteOffset" : 552
        },
        {
            "buffer" : 0,
            "byteLength" : 144,
            "byteOffset" : 1104
        },
        {
            "buffer" : 0,
            "byteLength" : 288,
            "byteOffset" : 1248
        },
        {
            "buffer" : 0,
            "byteLength" : 288,
            "byteOffset" : 1536
        },
        {
            "buffer" : 0,
            "byteLength" : 48,
            "byteOffset" : 1824
        },
        {
            "buffer" : 0,
            "byteLength" : 672,
            "byteOffset" : 1872
        },
        {
            "buffer" : 0,
            "byteLength" : 672,
            "byteOffset" : 2544
        },
        {
            "buffer" : 0,
            "byteLength" : 120,
            "byteOffset" : 3216
        },
        {
            "buffer" : 0,
            "byteLength" : 288,
            "byteOffset" : 3336
        },
        {
            "buffer" : 0,
            "byteLength" : 288,
            "byteOffset" : 3624
        },
        {
            "buffer" : 0,
            "byteLength" : 48,
            "byteOffset" : 3912
        }
    ],
    "buffers" : [
        {
            "byteLength" : 3960,
            "uri" : "data:application/octet-stream;base64,"
        }
    ]
}
