{
    "asset" : {
        "generator" : "Khronos glTF Blender I/O v3.2.43",
        "version" : "2.0"
    },
    "scene" : 0,
    "scenes" : [
        {
            "name" : "Scene",
            "nodes" : [
                0
            ]
        }
    ],
    "nodes" : [
        {
            "mesh" : 0,
            "name" : "J70.DodecaedroTruncadoMetabiaumentado",
            "translation" : [
                0,
                9.350000381469727,
                0
            ]
        }
    ],
    "materials" : [
        {
            "doubleSided" : true,
            "name" : "DECAGONO",
            "pbrMetallicRoughness" : {
                "baseColorFactor" : [
                    0.019381871446967125,
                    0.34670379757881165,
                    0.35153260827064514,
                    1
                ],
                "roughnessFactor" : 0.5
            }
        },
        {
            "doubleSided" : true,
            "name" : "CUADRO ROMBICOSIDODECAEDRO",
            "pbrMetallicRoughness" : {
                "baseColorFactor" : [
                    0.04373457282781601,
                    0.3662523925304413,
                    0.304987370967865,
                    1
                ],
                "roughnessFactor" : 0.5
            }
        },
        {
            "doubleSided" : true,
            "name" : "PENTAGONO ROMBICOSIDODECAEDRO",
            "pbrMetallicRoughness" : {
                "baseColorFactor" : [
                    0.46207600831985474,
                    0.8307691812515259,
                    0.6653875112533569,
                    1
                ],
                "roughnessFactor" : 0.5
            }
        },
        {
            "doubleSided" : true,
            "name" : "TRIANGULO ROMBICOSIDODECAEDRO",
            "pbrMetallicRoughness" : {
                "baseColorFactor" : [
                    0.2050778865814209,
                    0.7304604053497314,
                    0.5647117495536804,
                    1
                ],
                "roughnessFactor" : 0.5
            }
        },
        {
            "doubleSided" : true,
            "name" : "TRI\u00c1NGULO DODECAEDRO TRUNCADO",
            "pbrMetallicRoughness" : {
                "baseColorFactor" : [
                    0.12743695080280304,
                    0.5775800347328186,
                    0.520995557308197,
                    1
                ],
                "roughnessFactor" : 0.5
            }
        }
    ],
    "meshes" : [
        {
            "name" : "J70.DodecaedroTruncadoMetabiaumentado",
            "primitives" : [
                {
                    "attributes" : {
                        "POSITION" : 0,
                        "NORMAL" : 1
                    },
                    "indices" : 2,
                    "material" : 0
                },
                {
                    "attributes" : {
                        "POSITION" : 3,
                        "NORMAL" : 4
                    },
                    "indices" : 5,
                    "material" : 1
                },
                {
                    "attributes" : {
                        "POSITION" : 6,
                        "NORMAL" : 7
                    },
                    "indices" : 8,
                    "material" : 2
                },
                {
                    "attributes" : {
                        "POSITION" : 9,
                        "NORMAL" : 10
                    },
                    "indices" : 11,
                    "material" : 3
                },
                {
                    "attributes" : {
                        "POSITION" : 12,
                        "NORMAL" : 13
                    },
                    "indices" : 14,
                    "material" : 4
                }
            ]
        }
    ],
    "accessors" : [
        {
            "bufferView" : 0,
            "componentType" : 5126,
            "count" : 252,
            "max" : [
                9.341724395751953,
                9.341724395751953,
                9.341724395751953
            ],
            "min" : [
                -9.341724395751953,
                -9.341724395751953,
                -9.341724395751953
            ],
            "type" : "VEC3"
        },
        {
            "bufferView" : 1,
            "componentType" : 5126,
            "count" : 252,
            "type" : "VEC3"
        },
        {
            "bufferView" : 2,
            "componentType" : 5123,
            "count" : 252,
            "type" : "SCALAR"
        },
        {
            "bufferView" : 3,
            "componentType" : 5126,
            "count" : 60,
            "max" : [
                5.163978099822998,
                9.614311218261719,
                5.163978099822998
            ],
            "min" : [
                -8.355491638183594,
                -8.355491638183594,
                -9.614311218261719
            ],
            "type" : "VEC3"
        },
        {
            "bufferView" : 4,
            "componentType" : 5126,
            "count" : 60,
            "type" : "VEC3"
        },
        {
            "bufferView" : 5,
            "componentType" : 5123,
            "count" : 60,
            "type" : "SCALAR"
        },
        {
            "bufferView" : 6,
            "componentType" : 5126,
            "count" : 18,
            "max" : [
                2.581989049911499,
                9.614311218261719,
                2.581989049911499
            ],
            "min" : [
                -6.928203105926514,
                -6.928203105926514,
                -9.614311218261719
            ],
            "type" : "VEC3"
        },
        {
            "bufferView" : 7,
            "componentType" : 5126,
            "count" : 18,
            "type" : "VEC3"
        },
        {
            "bufferView" : 8,
            "componentType" : 5123,
            "count" : 18,
            "type" : "SCALAR"
        },
        {
            "bufferView" : 9,
            "componentType" : 5126,
            "count" : 30,
            "max" : [
                5.163978099822998,
                9.614311218261719,
                5.163978099822998
            ],
            "min" : [
                -8.355491638183594,
                -8.355491638183594,
                -9.614311218261719
            ],
            "type" : "VEC3"
        },
        {
            "bufferView" : 10,
            "componentType" : 5126,
            "count" : 30,
            "type" : "VEC3"
        },
        {
            "bufferView" : 11,
            "componentType" : 5123,
            "count" : 30,
            "type" : "SCALAR"
        },
        {
            "bufferView" : 12,
            "componentType" : 5126,
            "count" : 48,
            "max" : [
                9.341724395751953,
                9.341724395751953,
                9.341724395751953
            ],
            "min" : [
                -9.341724395751953,
                -9.341724395751953,
                -9.341724395751953
            ],
            "type" : "VEC3"
        },
        {
            "bufferView" : 13,
            "componentType" : 5126,
            "count" : 48,
            "type" : "VEC3"
        },
        {
            "bufferView" : 14,
            "componentType" : 5123,
            "count" : 48,
            "type" : "SCALAR"
        }
    ],
    "bufferViews" : [
        {
            "buffer" : 0,
            "byteLength" : 3024,
            "byteOffset" : 0
        },
        {
            "buffer" : 0,
            "byteLength" : 3024,
            "byteOffset" : 3024
        },
        {
            "buffer" : 0,
            "byteLength" : 504,
            "byteOffset" : 6048
        },
        {
            "buffer" : 0,
            "byteLength" : 720,
            "byteOffset" : 6552
        },
        {
            "buffer" : 0,
            "byteLength" : 720,
            "byteOffset" : 7272
        },
        {
            "buffer" : 0,
            "byteLength" : 120,
            "byteOffset" : 7992
        },
        {
            "buffer" : 0,
            "byteLength" : 216,
            "byteOffset" : 8112
        },
        {
            "buffer" : 0,
            "byteLength" : 216,
            "byteOffset" : 8328
        },
        {
            "buffer" : 0,
            "byteLength" : 36,
            "byteOffset" : 8544
        },
        {
            "buffer" : 0,
            "byteLength" : 360,
            "byteOffset" : 8580
        },
        {
            "buffer" : 0,
            "byteLength" : 360,
            "byteOffset" : 8940
        },
        {
            "buffer" : 0,
            "byteLength" : 60,
            "byteOffset" : 9300
        },
        {
            "buffer" : 0,
            "byteLength" : 576,
            "byteOffset" : 9360
        },
        {
            "buffer" : 0,
            "byteLength" : 576,
            "byteOffset" : 9936
        },
        {
            "buffer" : 0,
            "byteLength" : 96,
            "byteOffset" : 10512
        }
    ],
    "buffers" : [
        {
            "byteLength" : 10608,
            "uri" : "data:application/octet-stream;base64,"
        }
    ]
}
