{
    "asset" : {
        "generator" : "Khronos glTF Blender I/O v3.2.43",
        "version" : "2.0"
    },
    "scene" : 0,
    "scenes" : [
        {
            "name" : "Scene",
            "nodes" : [
                0
            ]
        }
    ],
    "nodes" : [
        {
            "mesh" : 0,
            "name" : "J71.DodecaedroTruncadoTriaumentado",
            "translation" : [
                0,
                9.350000381469727,
                0
            ]
        }
    ],
    "materials" : [
        {
            "doubleSided" : true,
            "name" : "DECAGONO",
            "pbrMetallicRoughness" : {
                "baseColorFactor" : [
                    0.019381871446967125,
                    0.34670379757881165,
                    0.35153260827064514,
                    1
                ],
                "roughnessFactor" : 0.5
            }
        },
        {
            "doubleSided" : true,
            "name" : "PENTAGONO ROMBICOSIDODECAEDRO",
            "pbrMetallicRoughness" : {
                "baseColorFactor" : [
                    0.46207600831985474,
                    0.8307691812515259,
                    0.6653875112533569,
                    1
                ],
                "roughnessFactor" : 0.5
            }
        },
        {
            "doubleSided" : true,
            "name" : "CUADRO ROMBICOSIDODECAEDRO",
            "pbrMetallicRoughness" : {
                "baseColorFactor" : [
                    0.04373457282781601,
                    0.3662523925304413,
                    0.304987370967865,
                    1
                ],
                "roughnessFactor" : 0.5
            }
        },
        {
            "doubleSided" : true,
            "name" : "TRIANGULO ROMBICOSIDODECAEDRO",
            "pbrMetallicRoughness" : {
                "baseColorFactor" : [
                    0.2050778865814209,
                    0.7304604053497314,
                    0.5647117495536804,
                    1
                ],
                "roughnessFactor" : 0.5
            }
        },
        {
            "doubleSided" : true,
            "name" : "TRI\u00c1NGULO DODECAEDRO TRUNCADO",
            "pbrMetallicRoughness" : {
                "baseColorFactor" : [
                    0.12743695080280304,
                    0.5775800347328186,
                    0.520995557308197,
                    1
                ],
                "roughnessFactor" : 0.5
            }
        }
    ],
    "meshes" : [
        {
            "name" : "J71.DodecaedroTruncadoTriaumentado",
            "primitives" : [
                {
                    "attributes" : {
                        "POSITION" : 0,
                        "NORMAL" : 1
                    },
                    "indices" : 2,
                    "material" : 0
                },
                {
                    "attributes" : {
                        "POSITION" : 3,
                        "NORMAL" : 4
                    },
                    "indices" : 5,
                    "material" : 1
                },
                {
                    "attributes" : {
                        "POSITION" : 6,
                        "NORMAL" : 7
                    },
                    "indices" : 8,
                    "material" : 2
                },
                {
                    "attributes" : {
                        "POSITION" : 9,
                        "NORMAL" : 10
                    },
                    "indices" : 11,
                    "material" : 3
                },
                {
                    "attributes" : {
                        "POSITION" : 12,
                        "NORMAL" : 13
                    },
                    "indices" : 14,
                    "material" : 4
                }
            ]
        }
    ],
    "accessors" : [
        {
            "bufferView" : 0,
            "componentType" : 5126,
            "count" : 219,
            "max" : [
                9.341724395751953,
                9.341724395751953,
                9.341724395751953
            ],
            "min" : [
                -9.341724395751953,
                -9.341724395751953,
                -9.341724395751953
            ],
            "type" : "VEC3"
        },
        {
            "bufferView" : 1,
            "componentType" : 5126,
            "count" : 219,
            "type" : "VEC3"
        },
        {
            "bufferView" : 2,
            "componentType" : 5123,
            "count" : 219,
            "type" : "SCALAR"
        },
        {
            "bufferView" : 3,
            "componentType" : 5126,
            "count" : 27,
            "max" : [
                9.614311218261719,
                9.614311218261719,
                6.928203105926514
            ],
            "min" : [
                -6.928203105926514,
                -6.928203105926514,
                -9.614311218261719
            ],
            "type" : "VEC3"
        },
        {
            "bufferView" : 4,
            "componentType" : 5126,
            "count" : 27,
            "type" : "VEC3"
        },
        {
            "bufferView" : 5,
            "componentType" : 5123,
            "count" : 27,
            "type" : "SCALAR"
        },
        {
            "bufferView" : 6,
            "componentType" : 5126,
            "count" : 90,
            "max" : [
                9.614311218261719,
                9.614311218261719,
                8.355491638183594
            ],
            "min" : [
                -8.355491638183594,
                -8.355491638183594,
                -9.614311218261719
            ],
            "type" : "VEC3"
        },
        {
            "bufferView" : 7,
            "componentType" : 5126,
            "count" : 90,
            "type" : "VEC3"
        },
        {
            "bufferView" : 8,
            "componentType" : 5123,
            "count" : 90,
            "type" : "SCALAR"
        },
        {
            "bufferView" : 9,
            "componentType" : 5126,
            "count" : 45,
            "max" : [
                9.614311218261719,
                9.614311218261719,
                8.355491638183594
            ],
            "min" : [
                -8.355491638183594,
                -8.355491638183594,
                -9.614311218261719
            ],
            "type" : "VEC3"
        },
        {
            "bufferView" : 10,
            "componentType" : 5126,
            "count" : 45,
            "type" : "VEC3"
        },
        {
            "bufferView" : 11,
            "componentType" : 5123,
            "count" : 45,
            "type" : "SCALAR"
        },
        {
            "bufferView" : 12,
            "componentType" : 5126,
            "count" : 57,
            "max" : [
                9.341724395751953,
                9.341724395751953,
                9.341724395751953
            ],
            "min" : [
                -9.341724395751953,
                -9.341724395751953,
                -9.341724395751953
            ],
            "type" : "VEC3"
        },
        {
            "bufferView" : 13,
            "componentType" : 5126,
            "count" : 57,
            "type" : "VEC3"
        },
        {
            "bufferView" : 14,
            "componentType" : 5123,
            "count" : 57,
            "type" : "SCALAR"
        }
    ],
    "bufferViews" : [
        {
            "buffer" : 0,
            "byteLength" : 2628,
            "byteOffset" : 0
        },
        {
            "buffer" : 0,
            "byteLength" : 2628,
            "byteOffset" : 2628
        },
        {
            "buffer" : 0,
            "byteLength" : 438,
            "byteOffset" : 5256
        },
        {
            "buffer" : 0,
            "byteLength" : 324,
            "byteOffset" : 5696
        },
        {
            "buffer" : 0,
            "byteLength" : 324,
            "byteOffset" : 6020
        },
        {
            "buffer" : 0,
            "byteLength" : 54,
            "byteOffset" : 6344
        },
        {
            "buffer" : 0,
            "byteLength" : 1080,
            "byteOffset" : 6400
        },
        {
            "buffer" : 0,
            "byteLength" : 1080,
            "byteOffset" : 7480
        },
        {
            "buffer" : 0,
            "byteLength" : 180,
            "byteOffset" : 8560
        },
        {
            "buffer" : 0,
            "byteLength" : 540,
            "byteOffset" : 8740
        },
        {
            "buffer" : 0,
            "byteLength" : 540,
            "byteOffset" : 9280
        },
        {
            "buffer" : 0,
            "byteLength" : 90,
            "byteOffset" : 9820
        },
        {
            "buffer" : 0,
            "byteLength" : 684,
            "byteOffset" : 9912
        },
        {
            "buffer" : 0,
            "byteLength" : 684,
            "byteOffset" : 10596
        },
        {
            "buffer" : 0,
            "byteLength" : 114,
            "byteOffset" : 11280
        }
    ],
    "buffers" : [
        {
            "byteLength" : 11396,
            "uri" : "data:application/octet-stream;base64,"
        }
    ]
}
