{
    "asset" : {
        "generator" : "Khronos glTF Blender I/O v3.2.43",
        "version" : "2.0"
    },
    "scene" : 0,
    "scenes" : [
        {
            "name" : "Scene",
            "nodes" : [
                0
            ]
        }
    ],
    "nodes" : [
        {
            "mesh" : 0,
            "name" : "J72.RombicosidodecaedroGiroide",
            "translation" : [
                0,
                9.5,
                0
            ]
        }
    ],
    "materials" : [
        {
            "doubleSided" : true,
            "name" : "PENTAGONO ROMBICOSIDODECAEDRO",
            "pbrMetallicRoughness" : {
                "baseColorFactor" : [
                    0.46207600831985474,
                    0.8307691812515259,
                    0.6653875112533569,
                    1
                ],
                "roughnessFactor" : 0.5
            }
        },
        {
            "doubleSided" : true,
            "name" : "CUADRO ROMBICOSIDODECAEDRO",
            "pbrMetallicRoughness" : {
                "baseColorFactor" : [
                    0.04373457282781601,
                    0.3662523925304413,
                    0.304987370967865,
                    1
                ],
                "roughnessFactor" : 0.5
            }
        },
        {
            "doubleSided" : true,
            "name" : "TRIANGULO ROMBICOSIDODECAEDRO",
            "pbrMetallicRoughness" : {
                "baseColorFactor" : [
                    0.2050778865814209,
                    0.7304604053497314,
                    0.5647117495536804,
                    1
                ],
                "roughnessFactor" : 0.5
            }
        }
    ],
    "meshes" : [
        {
            "name" : "J72.RombicosidodecaedroGiroide",
            "primitives" : [
                {
                    "attributes" : {
                        "POSITION" : 0,
                        "NORMAL" : 1
                    },
                    "indices" : 2,
                    "material" : 0
                },
                {
                    "attributes" : {
                        "POSITION" : 3,
                        "NORMAL" : 4
                    },
                    "indices" : 5,
                    "material" : 1
                },
                {
                    "attributes" : {
                        "POSITION" : 6,
                        "NORMAL" : 7
                    },
                    "indices" : 8,
                    "material" : 2
                }
            ]
        }
    ],
    "accessors" : [
        {
            "bufferView" : 0,
            "componentType" : 5126,
            "count" : 111,
            "max" : [
                9.485360145568848,
                9.86785888671875,
                9.485360145568848
            ],
            "min" : [
                -9.485360145568848,
                -9.485360145568848,
                -9.485360145568848
            ],
            "type" : "VEC3"
        },
        {
            "bufferView" : 1,
            "componentType" : 5126,
            "count" : 111,
            "type" : "VEC3"
        },
        {
            "bufferView" : 2,
            "componentType" : 5123,
            "count" : 111,
            "type" : "SCALAR"
        },
        {
            "bufferView" : 3,
            "componentType" : 5126,
            "count" : 168,
            "max" : [
                9.485360145568848,
                9.86785888671875,
                9.485360145568848
            ],
            "min" : [
                -9.485360145568848,
                -9.485360145568848,
                -9.485360145568848
            ],
            "type" : "VEC3"
        },
        {
            "bufferView" : 4,
            "componentType" : 5126,
            "count" : 168,
            "type" : "VEC3"
        },
        {
            "bufferView" : 5,
            "componentType" : 5123,
            "count" : 180,
            "type" : "SCALAR"
        },
        {
            "bufferView" : 6,
            "componentType" : 5126,
            "count" : 57,
            "max" : [
                9.485360145568848,
                9.86785888671875,
                9.485360145568848
            ],
            "min" : [
                -9.485360145568848,
                -9.485360145568848,
                -9.485360145568848
            ],
            "type" : "VEC3"
        },
        {
            "bufferView" : 7,
            "componentType" : 5126,
            "count" : 57,
            "type" : "VEC3"
        },
        {
            "bufferView" : 8,
            "componentType" : 5123,
            "count" : 57,
            "type" : "SCALAR"
        }
    ],
    "bufferViews" : [
        {
            "buffer" : 0,
            "byteLength" : 1332,
            "byteOffset" : 0
        },
        {
            "buffer" : 0,
            "byteLength" : 1332,
            "byteOffset" : 1332
        },
        {
            "buffer" : 0,
            "byteLength" : 222,
            "byteOffset" : 2664
        },
        {
            "buffer" : 0,
            "byteLength" : 2016,
            "byteOffset" : 2888
        },
        {
            "buffer" : 0,
            "byteLength" : 2016,
            "byteOffset" : 4904
        },
        {
            "buffer" : 0,
            "byteLength" : 360,
            "byteOffset" : 6920
        },
        {
            "buffer" : 0,
            "byteLength" : 684,
            "byteOffset" : 7280
        },
        {
            "buffer" : 0,
            "byteLength" : 684,
            "byteOffset" : 7964
        },
        {
            "buffer" : 0,
            "byteLength" : 114,
            "byteOffset" : 8648
        }
    ],
    "buffers" : [
        {
            "byteLength" : 8764,
            "uri" : "data:application/octet-stream;base64,"
        }
    ]
}
