{
    "asset" : {
        "generator" : "Khronos glTF Blender I/O v3.2.43",
        "version" : "2.0"
    },
    "scene" : 0,
    "scenes" : [
        {
            "name" : "Scene",
            "nodes" : [
                0
            ]
        }
    ],
    "nodes" : [
        {
            "mesh" : 0,
            "name" : "J74.RombicosidodecaedroMetabigiroide",
            "translation" : [
                0,
                9.890000343322754,
                0
            ]
        }
    ],
    "materials" : [
        {
            "doubleSided" : true,
            "name" : "PENTAGONO ROMBICOSIDODECAEDRO",
            "pbrMetallicRoughness" : {
                "baseColorFactor" : [
                    0.46207600831985474,
                    0.8307691812515259,
                    0.6653875112533569,
                    1
                ],
                "roughnessFactor" : 0.5
            }
        },
        {
            "doubleSided" : true,
            "name" : "TRIANGULO ROMBICOSIDODECAEDRO",
            "pbrMetallicRoughness" : {
                "baseColorFactor" : [
                    0.2050778865814209,
                    0.7304604053497314,
                    0.5647117495536804,
                    1
                ],
                "roughnessFactor" : 0.5
            }
        },
        {
            "doubleSided" : true,
            "name" : "CUADRO ROMBICOSIDODECAEDRO",
            "pbrMetallicRoughness" : {
                "baseColorFactor" : [
                    0.04373457282781601,
                    0.3662523925304413,
                    0.304987370967865,
                    1
                ],
                "roughnessFactor" : 0.5
            }
        }
    ],
    "meshes" : [
        {
            "name" : "J74.RombicosidodecaedroMetabigiroide",
            "primitives" : [
                {
                    "attributes" : {
                        "POSITION" : 0,
                        "NORMAL" : 1
                    },
                    "indices" : 2,
                    "material" : 0
                },
                {
                    "attributes" : {
                        "POSITION" : 3,
                        "NORMAL" : 4
                    },
                    "indices" : 5,
                    "material" : 1
                },
                {
                    "attributes" : {
                        "POSITION" : 6,
                        "NORMAL" : 7
                    },
                    "indices" : 8,
                    "material" : 2
                }
            ]
        }
    ],
    "accessors" : [
        {
            "bufferView" : 0,
            "componentType" : 5126,
            "count" : 108,
            "max" : [
                9.485360145568848,
                9.86785888671875,
                9.485360145568848
            ],
            "min" : [
                -9.485360145568848,
                -9.86785888671875,
                -9.485360145568848
            ],
            "type" : "VEC3"
        },
        {
            "bufferView" : 1,
            "componentType" : 5126,
            "count" : 108,
            "type" : "VEC3"
        },
        {
            "bufferView" : 2,
            "componentType" : 5123,
            "count" : 108,
            "type" : "SCALAR"
        },
        {
            "bufferView" : 3,
            "componentType" : 5126,
            "count" : 60,
            "max" : [
                9.485360145568848,
                9.86785888671875,
                9.485360145568848
            ],
            "min" : [
                -9.485360145568848,
                -9.86785888671875,
                -9.485360145568848
            ],
            "type" : "VEC3"
        },
        {
            "bufferView" : 4,
            "componentType" : 5126,
            "count" : 60,
            "type" : "VEC3"
        },
        {
            "bufferView" : 5,
            "componentType" : 5123,
            "count" : 60,
            "type" : "SCALAR"
        },
        {
            "bufferView" : 6,
            "componentType" : 5126,
            "count" : 168,
            "max" : [
                9.485360145568848,
                9.86785888671875,
                9.485360145568848
            ],
            "min" : [
                -9.485360145568848,
                -9.86785888671875,
                -9.485360145568848
            ],
            "type" : "VEC3"
        },
        {
            "bufferView" : 7,
            "componentType" : 5126,
            "count" : 168,
            "type" : "VEC3"
        },
        {
            "bufferView" : 8,
            "componentType" : 5123,
            "count" : 180,
            "type" : "SCALAR"
        }
    ],
    "bufferViews" : [
        {
            "buffer" : 0,
            "byteLength" : 1296,
            "byteOffset" : 0
        },
        {
            "buffer" : 0,
            "byteLength" : 1296,
            "byteOffset" : 1296
        },
        {
            "buffer" : 0,
            "byteLength" : 216,
            "byteOffset" : 2592
        },
        {
            "buffer" : 0,
            "byteLength" : 720,
            "byteOffset" : 2808
        },
        {
            "buffer" : 0,
            "byteLength" : 720,
            "byteOffset" : 3528
        },
        {
            "buffer" : 0,
            "byteLength" : 120,
            "byteOffset" : 4248
        },
        {
            "buffer" : 0,
            "byteLength" : 2016,
            "byteOffset" : 4368
        },
        {
            "buffer" : 0,
            "byteLength" : 2016,
            "byteOffset" : 6384
        },
        {
            "buffer" : 0,
            "byteLength" : 360,
            "byteOffset" : 8400
        }
    ],
    "buffers" : [
        {
            "byteLength" : 8760,
            "uri" : "data:application/octet-stream;base64,"
        }
    ]
}
