{
    "asset" : {
        "generator" : "Khronos glTF Blender I/O v3.2.43",
        "version" : "2.0"
    },
    "scene" : 0,
    "scenes" : [
        {
            "name" : "Scene",
            "nodes" : [
                0
            ]
        }
    ],
    "nodes" : [
        {
            "mesh" : 0,
            "name" : "J77.RombicosidodecaedroParagiroideDisminuido",
            "translation" : [
                0,
                10,
                0
            ]
        }
    ],
    "materials" : [
        {
            "doubleSided" : true,
            "name" : "PENTAGONO ROMBICOSIDODECAEDRO",
            "pbrMetallicRoughness" : {
                "baseColorFactor" : [
                    0.46207600831985474,
                    0.8307691812515259,
                    0.6653875112533569,
                    1
                ],
                "roughnessFactor" : 0.5
            }
        },
        {
            "doubleSided" : true,
            "name" : "TRIANGULO ROMBICOSIDODECAEDRO",
            "pbrMetallicRoughness" : {
                "baseColorFactor" : [
                    0.2050778865814209,
                    0.7304604053497314,
                    0.5647117495536804,
                    1
                ],
                "roughnessFactor" : 0.5
            }
        },
        {
            "doubleSided" : true,
            "name" : "CUADRO ROMBICOSIDODECAEDRO",
            "pbrMetallicRoughness" : {
                "baseColorFactor" : [
                    0.04373457282781601,
                    0.3662523925304413,
                    0.304987370967865,
                    1
                ],
                "roughnessFactor" : 0.5
            }
        },
        {
            "doubleSided" : true,
            "name" : "DECAGONO",
            "pbrMetallicRoughness" : {
                "baseColorFactor" : [
                    0.019381871446967125,
                    0.34670379757881165,
                    0.35153260827064514,
                    1
                ],
                "roughnessFactor" : 0.5
            }
        }
    ],
    "meshes" : [
        {
            "name" : "J77.RombicosidodecaedroParagiroideDisminuido",
            "primitives" : [
                {
                    "attributes" : {
                        "POSITION" : 0,
                        "NORMAL" : 1
                    },
                    "indices" : 2,
                    "material" : 0
                },
                {
                    "attributes" : {
                        "POSITION" : 3,
                        "NORMAL" : 4
                    },
                    "indices" : 5,
                    "material" : 1
                },
                {
                    "attributes" : {
                        "POSITION" : 6,
                        "NORMAL" : 7
                    },
                    "indices" : 8,
                    "material" : 2
                },
                {
                    "attributes" : {
                        "POSITION" : 9,
                        "NORMAL" : 10
                    },
                    "indices" : 11,
                    "material" : 3
                }
            ]
        }
    ],
    "accessors" : [
        {
            "bufferView" : 0,
            "componentType" : 5126,
            "count" : 99,
            "max" : [
                9.485360145568848,
                9.485360145568848,
                9.485360145568848
            ],
            "min" : [
                -9.485360145568848,
                -9.86785888671875,
                -9.485360145568848
            ],
            "type" : "VEC3"
        },
        {
            "bufferView" : 1,
            "componentType" : 5126,
            "count" : 99,
            "type" : "VEC3"
        },
        {
            "bufferView" : 2,
            "componentType" : 5123,
            "count" : 99,
            "type" : "SCALAR"
        },
        {
            "bufferView" : 3,
            "componentType" : 5126,
            "count" : 45,
            "max" : [
                9.485360145568848,
                7.2461700439453125,
                9.485360145568848
            ],
            "min" : [
                -9.485360145568848,
                -9.86785888671875,
                -9.485360145568848
            ],
            "type" : "VEC3"
        },
        {
            "bufferView" : 4,
            "componentType" : 5126,
            "count" : 45,
            "type" : "VEC3"
        },
        {
            "bufferView" : 5,
            "componentType" : 5123,
            "count" : 45,
            "type" : "SCALAR"
        },
        {
            "bufferView" : 6,
            "componentType" : 5126,
            "count" : 140,
            "max" : [
                9.485360145568848,
                9.485360145568848,
                9.485360145568848
            ],
            "min" : [
                -9.485360145568848,
                -9.86785888671875,
                -9.485360145568848
            ],
            "type" : "VEC3"
        },
        {
            "bufferView" : 7,
            "componentType" : 5126,
            "count" : 140,
            "type" : "VEC3"
        },
        {
            "bufferView" : 8,
            "componentType" : 5123,
            "count" : 150,
            "type" : "SCALAR"
        },
        {
            "bufferView" : 9,
            "componentType" : 5126,
            "count" : 24,
            "max" : [
                9.485360145568848,
                9.485360145568848,
                7.2461700439453125
            ],
            "min" : [
                -2.239190101623535,
                2.239190101623535,
                -7.2461700439453125
            ],
            "type" : "VEC3"
        },
        {
            "bufferView" : 10,
            "componentType" : 5126,
            "count" : 24,
            "type" : "VEC3"
        },
        {
            "bufferView" : 11,
            "componentType" : 5123,
            "count" : 24,
            "type" : "SCALAR"
        }
    ],
    "bufferViews" : [
        {
            "buffer" : 0,
            "byteLength" : 1188,
            "byteOffset" : 0
        },
        {
            "buffer" : 0,
            "byteLength" : 1188,
            "byteOffset" : 1188
        },
        {
            "buffer" : 0,
            "byteLength" : 198,
            "byteOffset" : 2376
        },
        {
            "buffer" : 0,
            "byteLength" : 540,
            "byteOffset" : 2576
        },
        {
            "buffer" : 0,
            "byteLength" : 540,
            "byteOffset" : 3116
        },
        {
            "buffer" : 0,
            "byteLength" : 90,
            "byteOffset" : 3656
        },
        {
            "buffer" : 0,
            "byteLength" : 1680,
            "byteOffset" : 3748
        },
        {
            "buffer" : 0,
            "byteLength" : 1680,
            "byteOffset" : 5428
        },
        {
            "buffer" : 0,
            "byteLength" : 300,
            "byteOffset" : 7108
        },
        {
            "buffer" : 0,
            "byteLength" : 288,
            "byteOffset" : 7408
        },
        {
            "buffer" : 0,
            "byteLength" : 288,
            "byteOffset" : 7696
        },
        {
            "buffer" : 0,
            "byteLength" : 48,
            "byteOffset" : 7984
        }
    ],
    "buffers" : [
        {
            "byteLength" : 8032,
            "uri" : "data:application/octet-stream;base64,"
        }
    ]
}
