{
    "asset" : {
        "generator" : "Khronos glTF Blender I/O v3.2.43",
        "version" : "2.0"
    },
    "scene" : 0,
    "scenes" : [
        {
            "name" : "Scene",
            "nodes" : [
                0
            ]
        }
    ],
    "nodes" : [
        {
            "mesh" : 0,
            "name" : "J80.RombicosidodecaedroParabidisminuido",
            "translation" : [
                0,
                9.5,
                0
            ]
        }
    ],
    "materials" : [
        {
            "doubleSided" : true,
            "name" : "DECAGONO",
            "pbrMetallicRoughness" : {
                "baseColorFactor" : [
                    0.019381871446967125,
                    0.34670379757881165,
                    0.35153260827064514,
                    1
                ],
                "roughnessFactor" : 0.5
            }
        },
        {
            "doubleSided" : true,
            "name" : "CUADRO ROMBICOSIDODECAEDRO",
            "pbrMetallicRoughness" : {
                "baseColorFactor" : [
                    0.04373457282781601,
                    0.3662523925304413,
                    0.304987370967865,
                    1
                ],
                "roughnessFactor" : 0.5
            }
        },
        {
            "doubleSided" : true,
            "name" : "TRIANGULO ROMBICOSIDODECAEDRO",
            "pbrMetallicRoughness" : {
                "baseColorFactor" : [
                    0.2050778865814209,
                    0.7304604053497314,
                    0.5647117495536804,
                    1
                ],
                "roughnessFactor" : 0.5
            }
        }
    ],
    "meshes" : [
        {
            "name" : "J80.RombicosidodecaedroParabidisminuido",
            "primitives" : [
                {
                    "attributes" : {
                        "POSITION" : 0,
                        "NORMAL" : 1
                    },
                    "indices" : 2,
                    "material" : 0
                },
                {
                    "attributes" : {
                        "POSITION" : 3,
                        "NORMAL" : 4
                    },
                    "indices" : 5,
                    "material" : 1
                },
                {
                    "attributes" : {
                        "POSITION" : 6,
                        "NORMAL" : 7
                    },
                    "indices" : 8,
                    "material" : 2
                }
            ]
        }
    ],
    "accessors" : [
        {
            "bufferView" : 0,
            "componentType" : 5126,
            "count" : 138,
            "max" : [
                9.485360145568848,
                9.485360145568848,
                9.485360145568848
            ],
            "min" : [
                -9.485360145568848,
                -9.485360145568848,
                -9.485360145568848
            ],
            "type" : "VEC3"
        },
        {
            "bufferView" : 1,
            "componentType" : 5126,
            "count" : 138,
            "type" : "VEC3"
        },
        {
            "bufferView" : 2,
            "componentType" : 5123,
            "count" : 138,
            "type" : "SCALAR"
        },
        {
            "bufferView" : 3,
            "componentType" : 5126,
            "count" : 112,
            "max" : [
                9.485360145568848,
                9.485360145568848,
                9.485360145568848
            ],
            "min" : [
                -9.485360145568848,
                -9.485360145568848,
                -9.485360145568848
            ],
            "type" : "VEC3"
        },
        {
            "bufferView" : 4,
            "componentType" : 5126,
            "count" : 112,
            "type" : "VEC3"
        },
        {
            "bufferView" : 5,
            "componentType" : 5123,
            "count" : 120,
            "type" : "SCALAR"
        },
        {
            "bufferView" : 6,
            "componentType" : 5126,
            "count" : 30,
            "max" : [
                9.485360145568848,
                7.2461700439453125,
                9.485360145568848
            ],
            "min" : [
                -9.485360145568848,
                -7.2461700439453125,
                -9.485360145568848
            ],
            "type" : "VEC3"
        },
        {
            "bufferView" : 7,
            "componentType" : 5126,
            "count" : 30,
            "type" : "VEC3"
        },
        {
            "bufferView" : 8,
            "componentType" : 5123,
            "count" : 30,
            "type" : "SCALAR"
        }
    ],
    "bufferViews" : [
        {
            "buffer" : 0,
            "byteLength" : 1656,
            "byteOffset" : 0
        },
        {
            "buffer" : 0,
            "byteLength" : 1656,
            "byteOffset" : 1656
        },
        {
            "buffer" : 0,
            "byteLength" : 276,
            "byteOffset" : 3312
        },
        {
            "buffer" : 0,
            "byteLength" : 1344,
            "byteOffset" : 3588
        },
        {
            "buffer" : 0,
            "byteLength" : 1344,
            "byteOffset" : 4932
        },
        {
            "buffer" : 0,
            "byteLength" : 240,
            "byteOffset" : 6276
        },
        {
            "buffer" : 0,
            "byteLength" : 360,
            "byteOffset" : 6516
        },
        {
            "buffer" : 0,
            "byteLength" : 360,
            "byteOffset" : 6876
        },
        {
            "buffer" : 0,
            "byteLength" : 60,
            "byteOffset" : 7236
        }
    ],
    "buffers" : [
        {
            "byteLength" : 7296,
            "uri" : "data:application/octet-stream;base64,"
        }
    ]
}
