{
    "asset" : {
        "generator" : "Khronos glTF Blender I/O v3.2.43",
        "version" : "2.0"
    },
    "scene" : 0,
    "scenes" : [
        {
            "name" : "Scene",
            "nodes" : [
                0
            ]
        }
    ],
    "nodes" : [
        {
            "mesh" : 0,
            "name" : "J83.RombicosidodecaedroTridisminuido",
            "translation" : [
                0,
                9.5,
                0
            ]
        }
    ],
    "materials" : [
        {
            "doubleSided" : true,
            "name" : "DECAGONO",
            "pbrMetallicRoughness" : {
                "baseColorFactor" : [
                    0.019381871446967125,
                    0.34670379757881165,
                    0.35153260827064514,
                    1
                ],
                "roughnessFactor" : 0.5
            }
        },
        {
            "doubleSided" : true,
            "name" : "CUADRO ROMBICOSIDODECAEDRO",
            "pbrMetallicRoughness" : {
                "baseColorFactor" : [
                    0.04373457282781601,
                    0.3662523925304413,
                    0.304987370967865,
                    1
                ],
                "roughnessFactor" : 0.5
            }
        },
        {
            "doubleSided" : true,
            "name" : "PENTAGONO ROMBICOSIDODECAEDRO",
            "pbrMetallicRoughness" : {
                "baseColorFactor" : [
                    0.46207600831985474,
                    0.8307691812515259,
                    0.6653875112533569,
                    1
                ],
                "roughnessFactor" : 0.5
            }
        },
        {
            "doubleSided" : true,
            "name" : "TRIANGULO ROMBICOSIDODECAEDRO",
            "pbrMetallicRoughness" : {
                "baseColorFactor" : [
                    0.2050778865814209,
                    0.7304604053497314,
                    0.5647117495536804,
                    1
                ],
                "roughnessFactor" : 0.5
            }
        }
    ],
    "meshes" : [
        {
            "name" : "J83.RombicosidodecaedroTridisminuido",
            "primitives" : [
                {
                    "attributes" : {
                        "POSITION" : 0,
                        "NORMAL" : 1
                    },
                    "indices" : 2,
                    "material" : 0
                },
                {
                    "attributes" : {
                        "POSITION" : 3,
                        "NORMAL" : 4
                    },
                    "indices" : 5,
                    "material" : 1
                },
                {
                    "attributes" : {
                        "POSITION" : 6,
                        "NORMAL" : 7
                    },
                    "indices" : 8,
                    "material" : 2
                },
                {
                    "attributes" : {
                        "POSITION" : 9,
                        "NORMAL" : 10
                    },
                    "indices" : 11,
                    "material" : 3
                }
            ]
        }
    ],
    "accessors" : [
        {
            "bufferView" : 0,
            "componentType" : 5126,
            "count" : 73,
            "max" : [
                9.485360145568848,
                9.485360145568848,
                9.485360145568848
            ],
            "min" : [
                -9.485360145568848,
                -9.485360145568848,
                -9.485360145568848
            ],
            "type" : "VEC3"
        },
        {
            "bufferView" : 1,
            "componentType" : 5126,
            "count" : 73,
            "type" : "VEC3"
        },
        {
            "bufferView" : 2,
            "componentType" : 5123,
            "count" : 75,
            "type" : "SCALAR"
        },
        {
            "bufferView" : 3,
            "componentType" : 5126,
            "count" : 84,
            "max" : [
                9.485360145568848,
                9.485360145568848,
                9.485360145568848
            ],
            "min" : [
                -9.485360145568848,
                -9.485360145568848,
                -9.485360145568848
            ],
            "type" : "VEC3"
        },
        {
            "bufferView" : 4,
            "componentType" : 5126,
            "count" : 84,
            "type" : "VEC3"
        },
        {
            "bufferView" : 5,
            "componentType" : 5123,
            "count" : 90,
            "type" : "SCALAR"
        },
        {
            "bufferView" : 6,
            "componentType" : 5126,
            "count" : 81,
            "max" : [
                9.485360145568848,
                9.485360145568848,
                9.485360145568848
            ],
            "min" : [
                -9.485360145568848,
                -9.485360145568848,
                -9.485360145568848
            ],
            "type" : "VEC3"
        },
        {
            "bufferView" : 7,
            "componentType" : 5126,
            "count" : 81,
            "type" : "VEC3"
        },
        {
            "bufferView" : 8,
            "componentType" : 5123,
            "count" : 81,
            "type" : "SCALAR"
        },
        {
            "bufferView" : 9,
            "componentType" : 5126,
            "count" : 12,
            "max" : [
                5.862275123596191,
                7.2461700439453125,
                9.485360145568848
            ],
            "min" : [
                -7.2461700439453125,
                -7.2461700439453125,
                -9.485360145568848
            ],
            "type" : "VEC3"
        },
        {
            "bufferView" : 10,
            "componentType" : 5126,
            "count" : 12,
            "type" : "VEC3"
        },
        {
            "bufferView" : 11,
            "componentType" : 5123,
            "count" : 12,
            "type" : "SCALAR"
        }
    ],
    "bufferViews" : [
        {
            "buffer" : 0,
            "byteLength" : 876,
            "byteOffset" : 0
        },
        {
            "buffer" : 0,
            "byteLength" : 876,
            "byteOffset" : 876
        },
        {
            "buffer" : 0,
            "byteLength" : 150,
            "byteOffset" : 1752
        },
        {
            "buffer" : 0,
            "byteLength" : 1008,
            "byteOffset" : 1904
        },
        {
            "buffer" : 0,
            "byteLength" : 1008,
            "byteOffset" : 2912
        },
        {
            "buffer" : 0,
            "byteLength" : 180,
            "byteOffset" : 3920
        },
        {
            "buffer" : 0,
            "byteLength" : 972,
            "byteOffset" : 4100
        },
        {
            "buffer" : 0,
            "byteLength" : 972,
            "byteOffset" : 5072
        },
        {
            "buffer" : 0,
            "byteLength" : 162,
            "byteOffset" : 6044
        },
        {
            "buffer" : 0,
            "byteLength" : 144,
            "byteOffset" : 6208
        },
        {
            "buffer" : 0,
            "byteLength" : 144,
            "byteOffset" : 6352
        },
        {
            "buffer" : 0,
            "byteLength" : 24,
            "byteOffset" : 6496
        }
    ],
    "buffers" : [
        {
            "byteLength" : 6520,
            "uri" : "data:application/octet-stream;base64,"
        }
    ]
}
