{
    "asset" : {
        "generator" : "Khronos glTF Blender I/O v3.2.43",
        "version" : "2.0"
    },
    "scene" : 0,
    "scenes" : [
        {
            "name" : "Scene",
            "nodes" : [
                0
            ]
        }
    ],
    "nodes" : [
        {
            "mesh" : 0,
            "name" : "J85.AntiprismaCuadradoRomo",
            "translation" : [
                0,
                5.5,
                0
            ]
        }
    ],
    "materials" : [
        {
            "doubleSided" : true,
            "name" : "Tri\u00e1ngulo ",
            "pbrMetallicRoughness" : {
                "baseColorFactor" : [
                    0.045186012983322144,
                    0.11443527042865753,
                    0.2158604860305786,
                    1
                ],
                "roughnessFactor" : 0.5
            }
        },
        {
            "doubleSided" : true,
            "name" : "Cuadrado",
            "pbrMetallicRoughness" : {
                "baseColorFactor" : [
                    0.09530702233314514,
                    0.2541518211364746,
                    0.4851498603820801,
                    1
                ],
                "roughnessFactor" : 0.5
            }
        }
    ],
    "meshes" : [
        {
            "name" : "J85.AntiprismaCuadradoRomo",
            "primitives" : [
                {
                    "attributes" : {
                        "POSITION" : 0,
                        "NORMAL" : 1
                    },
                    "indices" : 2,
                    "material" : 0
                },
                {
                    "attributes" : {
                        "POSITION" : 3,
                        "NORMAL" : 4
                    },
                    "indices" : 5,
                    "material" : 1
                }
            ]
        }
    ],
    "accessors" : [
        {
            "bufferView" : 0,
            "componentType" : 5126,
            "count" : 72,
            "max" : [
                9.884986877441406,
                5.515006065368652,
                9.884986877441406
            ],
            "min" : [
                -9.884986877441406,
                -5.515006065368652,
                -9.884986877441406
            ],
            "type" : "VEC3"
        },
        {
            "bufferView" : 1,
            "componentType" : 5126,
            "count" : 72,
            "type" : "VEC3"
        },
        {
            "bufferView" : 2,
            "componentType" : 5123,
            "count" : 72,
            "type" : "SCALAR"
        },
        {
            "bufferView" : 3,
            "componentType" : 5126,
            "count" : 8,
            "max" : [
                5.761383056640625,
                5.515006065368652,
                5.761383056640625
            ],
            "min" : [
                -5.761383056640625,
                -5.515006065368652,
                -5.761383056640625
            ],
            "type" : "VEC3"
        },
        {
            "bufferView" : 4,
            "componentType" : 5126,
            "count" : 8,
            "type" : "VEC3"
        },
        {
            "bufferView" : 5,
            "componentType" : 5123,
            "count" : 12,
            "type" : "SCALAR"
        }
    ],
    "bufferViews" : [
        {
            "buffer" : 0,
            "byteLength" : 864,
            "byteOffset" : 0
        },
        {
            "buffer" : 0,
            "byteLength" : 864,
            "byteOffset" : 864
        },
        {
            "buffer" : 0,
            "byteLength" : 144,
            "byteOffset" : 1728
        },
        {
            "buffer" : 0,
            "byteLength" : 96,
            "byteOffset" : 1872
        },
        {
            "buffer" : 0,
            "byteLength" : 96,
            "byteOffset" : 1968
        },
        {
            "buffer" : 0,
            "byteLength" : 24,
            "byteOffset" : 2064
        }
    ],
    "buffers" : [
        {
            "byteLength" : 2088,
            "uri" : "data:application/octet-stream;base64,"
        }
    ]
}
