{
    "asset" : {
        "generator" : "Khronos glTF Blender I/O v3.2.43",
        "version" : "2.0"
    },
    "scene" : 0,
    "scenes" : [
        {
            "name" : "Scene",
            "nodes" : [
                0
            ]
        }
    ],
    "nodes" : [
        {
            "mesh" : 0,
            "name" : "J88.Esfenomegacorona",
            "translation" : [
                0,
                6.199999809265137,
                0
            ]
        }
    ],
    "materials" : [
        {
            "doubleSided" : true,
            "name" : "Tri\u00e1ngulo ",
            "pbrMetallicRoughness" : {
                "baseColorFactor" : [
                    0.04091493412852287,
                    0.14995968341827393,
                    0.25015828013420105,
                    1
                ],
                "roughnessFactor" : 0.5
            }
        },
        {
            "doubleSided" : true,
            "name" : "Cuadrado",
            "pbrMetallicRoughness" : {
                "baseColorFactor" : [
                    0.010328862816095352,
                    0.4564104974269867,
                    0.9646860957145691,
                    1
                ],
                "roughnessFactor" : 0.5
            }
        }
    ],
    "meshes" : [
        {
            "name" : "J88.Esfenomegacorona",
            "primitives" : [
                {
                    "attributes" : {
                        "POSITION" : 0,
                        "NORMAL" : 1
                    },
                    "indices" : 2,
                    "material" : 0
                },
                {
                    "attributes" : {
                        "POSITION" : 3,
                        "NORMAL" : 4
                    },
                    "indices" : 5,
                    "material" : 1
                }
            ]
        }
    ],
    "accessors" : [
        {
            "bufferView" : 0,
            "componentType" : 5126,
            "count" : 48,
            "max" : [
                9.900782585144043,
                6.642481803894043,
                4.588359832763672
            ],
            "min" : [
                -9.900782585144043,
                -6.203869819641113,
                -4.588359832763672
            ],
            "type" : "VEC3"
        },
        {
            "bufferView" : 1,
            "componentType" : 5126,
            "count" : 48,
            "type" : "VEC3"
        },
        {
            "bufferView" : 2,
            "componentType" : 5123,
            "count" : 48,
            "type" : "SCALAR"
        },
        {
            "bufferView" : 3,
            "componentType" : 5126,
            "count" : 8,
            "max" : [
                3.8581418991088867,
                0,
                4.588359832763672
            ],
            "min" : [
                -3.8581418991088867,
                -6.203869819641113,
                -4.588359832763672
            ],
            "type" : "VEC3"
        },
        {
            "bufferView" : 4,
            "componentType" : 5126,
            "count" : 8,
            "type" : "VEC3"
        },
        {
            "bufferView" : 5,
            "componentType" : 5123,
            "count" : 12,
            "type" : "SCALAR"
        }
    ],
    "bufferViews" : [
        {
            "buffer" : 0,
            "byteLength" : 576,
            "byteOffset" : 0
        },
        {
            "buffer" : 0,
            "byteLength" : 576,
            "byteOffset" : 576
        },
        {
            "buffer" : 0,
            "byteLength" : 96,
            "byteOffset" : 1152
        },
        {
            "buffer" : 0,
            "byteLength" : 96,
            "byteOffset" : 1248
        },
        {
            "buffer" : 0,
            "byteLength" : 96,
            "byteOffset" : 1344
        },
        {
            "buffer" : 0,
            "byteLength" : 24,
            "byteOffset" : 1440
        }
    ],
    "buffers" : [
        {
            "byteLength" : 1464,
            "uri" : "data:application/octet-stream;base64,"
        }
    ]
}
