{
    "asset" : {
        "copyright" : "SOCCI",
        "generator" : "Khronos glTF Blender I/O v3.2.40",
        "version" : "2.0"
    },
    "scene" : 0,
    "scenes" : [
        {
            "name" : "Scene",
            "nodes" : [
                0
            ]
        }
    ],
    "nodes" : [
        {
            "mesh" : 0,
            "name" : "J9.PiramidePentagonalElongada",
            "translation" : [
                0,
                5,
                0
            ]
        }
    ],
    "materials" : [
        {
            "doubleSided" : true,
            "name" : "Material",
            "pbrMetallicRoughness" : {
                "baseColorFactor" : [
                    0.10946158319711685,
                    0.06480315327644348,
                    0.2015562504529953,
                    1
                ],
                "metallicFactor" : 0,
                "roughnessFactor" : 0.4000000059604645
            }
        },
        {
            "doubleSided" : true,
            "name" : "Material.001",
            "pbrMetallicRoughness" : {
                "baseColorFactor" : [
                    0.06300951540470123,
                    0.42869022488594055,
                    0.2704978883266449,
                    1
                ],
                "metallicFactor" : 0,
                "roughnessFactor" : 0.5
            }
        },
        {
            "doubleSided" : true,
            "name" : "Material.002",
            "pbrMetallicRoughness" : {
                "baseColorFactor" : [
                    0.0009099171147681773,
                    0.46778351068496704,
                    0.47353148460388184,
                    1
                ],
                "metallicFactor" : 0,
                "roughnessFactor" : 0.5
            }
        }
    ],
    "meshes" : [
        {
            "name" : "J9.PiramidePentagonalElongada",
            "primitives" : [
                {
                    "attributes" : {
                        "POSITION" : 0,
                        "NORMAL" : 1
                    },
                    "indices" : 2,
                    "material" : 0
                },
                {
                    "attributes" : {
                        "POSITION" : 3,
                        "NORMAL" : 4
                    },
                    "indices" : 5,
                    "material" : 1
                },
                {
                    "attributes" : {
                        "POSITION" : 6,
                        "NORMAL" : 7
                    },
                    "indices" : 8,
                    "material" : 2
                }
            ]
        }
    ],
    "accessors" : [
        {
            "bufferView" : 0,
            "componentType" : 5126,
            "count" : 24,
            "max" : [
                8.293116569519043,
                4.874571800231934,
                7.887222766876221
            ],
            "min" : [
                -6.709272861480713,
                -4.874571800231934,
                -7.887222766876221
            ],
            "type" : "VEC3"
        },
        {
            "bufferView" : 1,
            "componentType" : 5126,
            "count" : 24,
            "type" : "VEC3"
        },
        {
            "bufferView" : 2,
            "componentType" : 5123,
            "count" : 30,
            "type" : "SCALAR"
        },
        {
            "bufferView" : 3,
            "componentType" : 5126,
            "count" : 15,
            "max" : [
                8.293116569519043,
                10,
                7.887222766876221
            ],
            "min" : [
                -6.709272861480713,
                4.874571800231934,
                -7.887222766876221
            ],
            "type" : "VEC3"
        },
        {
            "bufferView" : 4,
            "componentType" : 5126,
            "count" : 15,
            "type" : "VEC3"
        },
        {
            "bufferView" : 5,
            "componentType" : 5123,
            "count" : 15,
            "type" : "SCALAR"
        },
        {
            "bufferView" : 6,
            "componentType" : 5126,
            "count" : 7,
            "max" : [
                8.293116569519043,
                -4.874571800231934,
                7.887222766876221
            ],
            "min" : [
                -6.709272861480713,
                -4.874571800231934,
                -7.887222766876221
            ],
            "type" : "VEC3"
        },
        {
            "bufferView" : 7,
            "componentType" : 5126,
            "count" : 7,
            "type" : "VEC3"
        },
        {
            "bufferView" : 8,
            "componentType" : 5123,
            "count" : 9,
            "type" : "SCALAR"
        }
    ],
    "bufferViews" : [
        {
            "buffer" : 0,
            "byteLength" : 288,
            "byteOffset" : 0
        },
        {
            "buffer" : 0,
            "byteLength" : 288,
            "byteOffset" : 288
        },
        {
            "buffer" : 0,
            "byteLength" : 60,
            "byteOffset" : 576
        },
        {
            "buffer" : 0,
            "byteLength" : 180,
            "byteOffset" : 636
        },
        {
            "buffer" : 0,
            "byteLength" : 180,
            "byteOffset" : 816
        },
        {
            "buffer" : 0,
            "byteLength" : 30,
            "byteOffset" : 996
        },
        {
            "buffer" : 0,
            "byteLength" : 84,
            "byteOffset" : 1028
        },
        {
            "buffer" : 0,
            "byteLength" : 84,
            "byteOffset" : 1112
        },
        {
            "buffer" : 0,
            "byteLength" : 18,
            "byteOffset" : 1196
        }
    ],
    "buffers" : [
        {
            "byteLength" : 1216,
            "uri" : "data:application/octet-stream;base64,"
        }
    ]
}
