{
    "asset" : {
        "generator" : "Khronos glTF Blender I/O v3.2.43",
        "version" : "2.0"
    },
    "scene" : 0,
    "scenes" : [
        {
            "name" : "Scene",
            "nodes" : [
                0
            ]
        }
    ],
    "nodes" : [
        {
            "mesh" : 0,
            "name" : "J91.Bilunabirrotonda",
            "translation" : [
                0,
                5.800000190734863,
                0
            ]
        }
    ],
    "materials" : [
        {
            "doubleSided" : true,
            "name" : "Tri\u00e1ngulo ",
            "pbrMetallicRoughness" : {
                "baseColorFactor" : [
                    0.04091493412852287,
                    0.14995968341827393,
                    0.25015828013420105,
                    1
                ],
                "roughnessFactor" : 0.5
            }
        },
        {
            "doubleSided" : true,
            "name" : "Pentagono",
            "pbrMetallicRoughness" : {
                "baseColorFactor" : [
                    0.08650017529726028,
                    0.18447482585906982,
                    0.2622506618499756,
                    1
                ],
                "roughnessFactor" : 0.4000000059604645
            }
        },
        {
            "doubleSided" : true,
            "name" : "Cuadrado",
            "pbrMetallicRoughness" : {
                "baseColorFactor" : [
                    0.010328862816095352,
                    0.4564104974269867,
                    0.9646860957145691,
                    1
                ],
                "roughnessFactor" : 0.5
            }
        }
    ],
    "meshes" : [
        {
            "name" : "J91.Bilunabirrotonda",
            "primitives" : [
                {
                    "attributes" : {
                        "POSITION" : 0,
                        "NORMAL" : 1
                    },
                    "indices" : 2,
                    "material" : 0
                },
                {
                    "attributes" : {
                        "POSITION" : 3,
                        "NORMAL" : 4
                    },
                    "indices" : 5,
                    "material" : 1
                },
                {
                    "attributes" : {
                        "POSITION" : 6,
                        "NORMAL" : 7
                    },
                    "indices" : 8,
                    "material" : 2
                }
            ]
        }
    ],
    "accessors" : [
        {
            "bufferView" : 0,
            "componentType" : 5126,
            "count" : 24,
            "max" : [
                9.341724395751953,
                5.773502826690674,
                5.773502826690674
            ],
            "min" : [
                -9.341724395751953,
                -5.773502826690674,
                -5.773502826690674
            ],
            "type" : "VEC3"
        },
        {
            "bufferView" : 1,
            "componentType" : 5126,
            "count" : 24,
            "type" : "VEC3"
        },
        {
            "bufferView" : 2,
            "componentType" : 5123,
            "count" : 24,
            "type" : "SCALAR"
        },
        {
            "bufferView" : 3,
            "componentType" : 5126,
            "count" : 36,
            "max" : [
                9.341724395751953,
                5.773502826690674,
                5.773502826690674
            ],
            "min" : [
                -9.341724395751953,
                -5.773502826690674,
                -5.773502826690674
            ],
            "type" : "VEC3"
        },
        {
            "bufferView" : 4,
            "componentType" : 5126,
            "count" : 36,
            "type" : "VEC3"
        },
        {
            "bufferView" : 5,
            "componentType" : 5123,
            "count" : 36,
            "type" : "SCALAR"
        },
        {
            "bufferView" : 6,
            "componentType" : 5126,
            "count" : 8,
            "max" : [
                3.568221092224121,
                5.773502826690674,
                3.568221092224121
            ],
            "min" : [
                -3.568221092224121,
                -5.773502826690674,
                -3.568221092224121
            ],
            "type" : "VEC3"
        },
        {
            "bufferView" : 7,
            "componentType" : 5126,
            "count" : 8,
            "type" : "VEC3"
        },
        {
            "bufferView" : 8,
            "componentType" : 5123,
            "count" : 12,
            "type" : "SCALAR"
        }
    ],
    "bufferViews" : [
        {
            "buffer" : 0,
            "byteLength" : 288,
            "byteOffset" : 0
        },
        {
            "buffer" : 0,
            "byteLength" : 288,
            "byteOffset" : 288
        },
        {
            "buffer" : 0,
            "byteLength" : 48,
            "byteOffset" : 576
        },
        {
            "buffer" : 0,
            "byteLength" : 432,
            "byteOffset" : 624
        },
        {
            "buffer" : 0,
            "byteLength" : 432,
            "byteOffset" : 1056
        },
        {
            "buffer" : 0,
            "byteLength" : 72,
            "byteOffset" : 1488
        },
        {
            "buffer" : 0,
            "byteLength" : 96,
            "byteOffset" : 1560
        },
        {
            "buffer" : 0,
            "byteLength" : 96,
            "byteOffset" : 1656
        },
        {
            "buffer" : 0,
            "byteLength" : 24,
            "byteOffset" : 1752
        }
    ],
    "buffers" : [
        {
            "byteLength" : 1776,
            "uri" : "data:application/octet-stream;base64,"
        }
    ]
}
